<svg width="1439" height="1998" viewBox="0 0 1439 1998" fill="none" xmlns="http://www.w3.org/2000/svg">
<path fill-rule="evenodd" clip-rule="evenodd" d="M149.434 1614.49C149.488 1614.82 149.543 1615.16 149.598 1615.49C151.051 1615.3 152.504 1615.11 153.957 1614.92C153.893 1614.53 153.828 1614.14 153.765 1613.75C152.32 1614 150.877 1614.25 149.434 1614.49ZM480.175 1635.58C480.244 1635.23 480.314 1634.87 480.384 1634.52C478.762 1634.09 477.145 1633.63 475.512 1633.25C475.377 1633.21 475.01 1633.61 474.976 1633.83C474.93 1634.12 475.067 1634.69 475.209 1634.72C476.855 1635.05 478.517 1635.31 480.175 1635.58ZM472.187 1589.46C472.138 1589.72 472.09 1589.98 472.04 1590.25C474.342 1590.68 476.645 1591.11 478.947 1591.54C479.007 1591.21 479.065 1590.89 479.125 1590.57L472.187 1589.46ZM602.443 1871.62L602.46 1871.41C600.253 1870.58 598.051 1869.75 595.841 1868.93C595.49 1868.8 595.115 1868.69 594.747 1868.67C594.629 1868.66 594.493 1868.98 594.367 1869.15C594.713 1869.34 595.04 1869.62 595.412 1869.72C597.749 1870.37 600.098 1870.99 602.443 1871.62ZM392.255 1659.31C392.219 1659.54 392.185 1659.78 392.149 1660.02C394.941 1660.46 397.73 1660.9 400.522 1661.35C400.559 1661.11 400.597 1660.86 400.635 1660.62C397.842 1660.18 395.048 1659.75 392.255 1659.31ZM204.063 1529.61C204.004 1529.25 203.944 1528.89 203.884 1528.53C201.497 1529.08 199.111 1529.62 196.723 1530.17C196.821 1530.58 196.919 1530.98 197.019 1531.38C199.368 1530.79 201.717 1530.2 204.063 1529.61ZM469.63 1504.71C469.686 1505.1 469.743 1505.5 469.801 1505.89C471.504 1505.99 473.208 1506.15 474.911 1506.14C475.262 1506.13 475.699 1505.56 475.905 1505.16C475.971 1505.03 475.412 1504.32 475.156 1504.33C473.312 1504.39 471.471 1504.57 469.63 1504.71ZM507.597 1794.78C507.64 1794.45 507.684 1794.12 507.724 1793.79C503.68 1793.14 499.635 1792.49 495.59 1791.85C495.542 1792.12 495.495 1792.4 495.447 1792.68C499.497 1793.38 503.547 1794.08 507.597 1794.78ZM579.79 1798.81C579.692 1799.16 579.592 1799.51 579.494 1799.86L588.573 1802.87C588.686 1802.5 588.797 1802.12 588.91 1801.74C585.87 1800.76 582.829 1799.79 579.79 1798.81ZM548.763 1709.7C548.785 1709.38 548.808 1709.06 548.829 1708.73C545.45 1708.17 542.073 1707.61 538.694 1707.04C538.644 1707.46 538.592 1707.87 538.541 1708.28C541.948 1708.76 545.356 1709.23 548.763 1709.7ZM502.951 1510.74L503.187 1509.92C500.675 1509.46 498.173 1508.95 495.645 1508.6C495.279 1508.54 494.808 1509.25 494.385 1509.6C494.78 1509.86 495.159 1510.32 495.569 1510.35C498.025 1510.53 500.49 1510.62 502.951 1510.74ZM446.829 1570.84C446.836 1570.63 446.844 1570.42 446.852 1570.2C442.562 1569.93 438.272 1569.66 433.98 1569.39C433.967 1569.76 433.952 1570.13 433.939 1570.49C438.235 1570.61 442.531 1570.73 446.829 1570.84ZM240.709 1540.52C240.622 1540.22 240.535 1539.92 240.447 1539.63L222.401 1541.12C222.429 1541.45 222.458 1541.77 222.486 1542.09C228.561 1541.57 234.635 1541.04 240.709 1540.52ZM285.604 1764.78C285.319 1762.46 282.815 1760.27 281.128 1760.55C280.621 1760.64 280.055 1760.33 279.507 1760.26C278.776 1760.15 278.037 1760.09 277.301 1760.01C277.678 1760.67 277.895 1761.67 278.458 1761.93C280.697 1762.97 283.044 1763.79 285.604 1764.78ZM480.642 1685.74C480.558 1685.97 480.474 1686.21 480.391 1686.44L495.685 1690.54C495.739 1690.3 495.792 1690.07 495.845 1689.82L480.642 1685.74ZM521.866 1815.96C521.833 1816.07 521.8 1816.18 521.768 1816.3L551.375 1824.25C551.406 1824.13 551.438 1824.02 551.47 1823.91L521.866 1815.96ZM508.021 1510.6L507.69 1511.99C511.526 1513.29 515.349 1514.63 519.212 1515.85C519.629 1515.98 520.263 1515.43 520.796 1515.19C520.546 1514.68 520.394 1513.81 520.027 1513.71C516.043 1512.6 512.029 1511.62 508.021 1510.6ZM598.888 1948.15C598.833 1948.29 598.777 1948.44 598.724 1948.58C608.357 1949.84 617.987 1951.12 627.631 1952.3C628.672 1952.42 629.791 1951.9 630.873 1951.68C629.969 1951.68 629.066 1951.68 628.161 1951.68C628.051 1951.68 627.942 1951.63 627.83 1951.62C618.182 1950.46 608.535 1949.31 598.888 1948.15ZM186.612 1582.18C182.39 1580.49 169.366 1582.44 167.901 1584.82C174.043 1583.95 179.907 1583.13 186.612 1582.18ZM178.96 1570.38C176.492 1570.27 175.683 1575.13 172.594 1571.89C172.323 1572.22 172.059 1572.56 171.776 1572.88C171.636 1573.04 171.483 1573.23 171.296 1573.3C170.919 1573.43 170.179 1573.48 170.177 1573.57C170.173 1574.07 170.187 1574.87 170.483 1575.03C171.522 1575.58 172.69 1576.28 173.786 1576.25C177.608 1576.12 178.33 1575.18 178.96 1570.38ZM664.748 1776.68C664.818 1776.13 664.888 1775.59 664.959 1775.04C656.839 1773.76 648.72 1772.47 640.601 1771.19C640.557 1771.43 640.512 1771.67 640.467 1771.91C648.561 1773.5 656.655 1775.09 664.748 1776.68ZM492.751 1676.72C492.869 1676.34 492.987 1675.95 493.105 1675.57C481.294 1671.98 469.483 1668.4 457.671 1664.81C469.393 1668.69 480.698 1673.92 492.751 1676.72ZM464.571 1617.14C464.485 1617.43 464.4 1617.72 464.314 1618.01C465.139 1618.3 465.954 1618.63 466.788 1618.89C472.535 1620.72 478.267 1622.6 484.047 1624.31C485.086 1624.62 487.152 1624.58 487.326 1624.14C488.053 1622.31 486.904 1621.32 485.038 1620.97C478.211 1619.72 471.393 1618.42 464.571 1617.14ZM133.183 1529.74C133.476 1530.06 133.769 1530.39 134.063 1530.72L162.325 1504.39C159.659 1505.87 157.196 1507.7 154.677 1509.44C153.987 1509.92 152.988 1511.89 152.461 1509.27C152.109 1509.37 151.654 1509.37 151.431 1509.6C151.136 1509.9 150.839 1510.72 150.858 1510.73C152.995 1511.87 151.088 1512.43 150.488 1513.01C144.737 1518.6 138.955 1524.17 133.183 1529.74ZM616.769 1820.89C616.833 1820.64 616.896 1820.4 616.958 1820.16L565.776 1807.96C565.66 1808.48 565.543 1809.01 565.425 1809.53C582.539 1813.32 599.655 1817.1 616.769 1820.89ZM669.548 1628.38C669.657 1628.15 669.766 1627.93 669.875 1627.71C668.078 1625.03 665.573 1622.57 664.646 1619.62C663.131 1614.81 660.28 1610.97 657.436 1607.03C657.23 1606.75 656.693 1606.7 656.309 1606.55C656.203 1607.01 655.878 1607.57 656.026 1607.94C658.854 1614.94 660.672 1622.55 667.507 1627.19C668.155 1627.63 668.865 1627.98 669.548 1628.38ZM675.866 1792.43C657.795 1789.81 640.756 1787.33 623.717 1784.86C640.48 1789.47 657.414 1792.84 675.866 1792.43ZM564.037 1755.22C564.776 1755.28 565.326 1755.39 565.864 1755.35C566.707 1755.28 567.54 1755.11 568.379 1754.98C567.736 1754.32 567.211 1753.34 566.433 1753.06C556.863 1749.66 547.259 1746.36 537.643 1743.09C537.147 1742.93 536.155 1743.16 535.931 1743.53C535.693 1743.93 535.92 1745.1 536.256 1745.25C538.478 1746.27 540.748 1747.21 543.075 1747.97C545.651 1748.8 548.365 1749.23 550.911 1750.14C555.392 1751.74 559.792 1753.57 564.037 1755.22ZM632.881 1772.51C631.895 1772.05 630.954 1771.42 629.917 1771.15C617.532 1767.91 605.141 1764.69 592.727 1761.56C591.879 1761.35 590.854 1761.84 589.911 1762C590.625 1762.57 591.251 1763.4 592.067 1763.68C605.275 1768.17 618.883 1770.92 632.881 1772.51ZM415.683 1618.32C415.585 1618.91 415.489 1619.5 415.392 1620.08C420.449 1621.03 425.512 1621.95 430.56 1622.93C432.855 1623.38 435.155 1623.85 437.392 1624.52C440.394 1625.42 443.278 1626.78 446.32 1627.47C451.655 1628.67 457.105 1629.36 462.436 1630.57C465.004 1631.16 467.385 1632.52 469.908 1633.36C470.513 1633.56 471.351 1633.05 472.081 1632.87C471.889 1632.43 471.811 1631.76 471.484 1631.6C469.541 1630.68 467.6 1629.67 465.548 1629.08C462.231 1628.11 458.815 1627.49 455.464 1626.63C451.406 1625.59 447.397 1624.35 443.326 1623.38C438.976 1622.33 434.596 1621.39 430.196 1620.6C425.378 1619.73 420.522 1619.07 415.683 1618.32ZM415.335 1587.93C416.679 1588.51 418.017 1589.51 419.42 1589.62C432.764 1590.65 446.128 1591.42 459.469 1592.49C465.714 1592.99 471.921 1594 478.151 1594.71C478.65 1594.77 479.204 1594.33 479.734 1594.12C479.403 1593.7 479.152 1593.12 478.72 1592.91C478.029 1592.57 477.229 1592.39 476.456 1592.3C467.452 1591.2 458.452 1590.07 449.438 1589.07C444.482 1588.52 439.509 1587.95 434.533 1587.8C428.224 1587.62 421.906 1587.87 415.335 1587.93ZM249.199 1498.82C269.178 1501.01 289.16 1503.2 309.141 1505.39C289.644 1498.51 269.535 1497.55 249.199 1498.82ZM422.273 1602.47L422.14 1603.67C423.035 1603.87 423.925 1604.19 424.827 1604.24C428.959 1604.45 433.121 1604.34 437.223 1604.79C452.701 1606.49 468.157 1608.38 483.626 1610.15C484.133 1610.21 484.7 1609.75 485.239 1609.53C484.84 1609.08 484.506 1608.32 484.034 1608.22C478.809 1607.12 473.605 1605.7 468.316 1605.19C456.888 1604.09 445.416 1603.41 433.954 1602.67C430.072 1602.42 426.168 1602.53 422.273 1602.47ZM687.867 1807.44C659.638 1805.8 631.933 1800.51 604.236 1795.19C631.588 1802.91 659.263 1808.39 687.867 1807.44ZM428.293 1608.82C429.881 1609.45 430.554 1609.96 431.235 1609.96C437.477 1610.04 443.017 1613.62 449.717 1612.67C454.727 1611.95 460.155 1613.92 465.364 1614.86C466.464 1615.06 467.425 1616.03 468.451 1616.64C470.589 1612.66 473.065 1619.25 475.688 1616.47C476.231 1615.9 479.265 1617.93 481.236 1618.31C482.34 1618.52 483.62 1617.82 484.822 1617.54C484.284 1616.73 483.915 1615.46 483.176 1615.19C481.02 1614.39 478.739 1613.85 476.466 1613.44C460.871 1610.6 445.145 1609.13 428.293 1608.82ZM630.778 1826.69C630.838 1826.42 630.896 1826.14 630.955 1825.86C627.947 1825.26 624.918 1824.76 621.937 1824.05C603.024 1819.53 584.135 1814.92 565.198 1810.51C563.079 1810.02 560.698 1810.65 558.439 1810.76C558.446 1811.2 558.453 1811.63 558.461 1812.06C582.167 1818.93 606.342 1823.46 630.778 1826.69ZM561.54 1504.94C506.236 1492.69 450.504 1483.71 393.622 1483.53C450.372 1484.72 506.029 1494.28 561.54 1504.94ZM580.135 1531.66C580.21 1531.38 580.286 1531.11 580.361 1530.83C577.487 1529.13 574.619 1527.43 571.727 1525.76C571.488 1525.63 571.045 1525.89 570.747 1525.81C566.701 1524.61 562.664 1523.39 558.626 1522.17C557.294 1521.76 555.97 1521.33 554.648 1520.89C552.238 1520.09 549.874 1519.08 547.411 1518.5C544.221 1517.75 540.955 1517.31 537.713 1516.78C534.897 1516.33 532.078 1515.87 529.245 1515.55C527.855 1515.39 526.426 1515.46 525.022 1515.55C524.575 1515.57 523.837 1515.9 523.785 1516.19C523.716 1516.59 524.043 1517.3 524.41 1517.51C525.073 1517.88 525.885 1518.01 526.646 1518.2C531.245 1519.33 535.861 1520.38 540.442 1521.58C543.392 1522.35 546.266 1523.41 549.216 1524.18C553.496 1525.31 557.812 1526.29 562.114 1527.33C568.12 1528.78 574.126 1530.22 580.135 1531.66ZM559.734 1854.45C559.68 1854.6 559.627 1854.75 559.573 1854.9C561.882 1856.02 564.099 1857.4 566.51 1858.2C578.258 1862.14 590.427 1864.33 602.549 1866.72C607.162 1867.64 611.63 1869.27 616.216 1870.35C618.992 1871 622.358 1872.31 624.552 1871.33C626.572 1870.43 628.052 1870.6 629.726 1870.93C631.299 1871.25 632.724 1872.4 634.29 1872.62C636.155 1872.87 638.101 1872.51 640.012 1872.41C640.503 1872.39 640.992 1872.34 641.481 1872.3C641.158 1871.77 640.932 1870.9 640.491 1870.77C638.677 1870.25 636.804 1869.92 634.94 1869.58C622.474 1867.32 609.965 1865.28 597.547 1862.78C584.896 1860.23 572.335 1857.25 559.734 1854.45ZM578.874 1795.73C591.045 1802.71 655.63 1816.53 673.704 1812.56C672.519 1812.38 671.762 1812.25 671.003 1812.15C655.895 1810.08 640.715 1808.42 625.699 1805.81C611.799 1803.39 597.82 1801.02 584.523 1795.91C583.114 1795.36 581.337 1795.78 578.874 1795.73ZM517.803 1818.14C551.879 1830.57 591.492 1840.71 630.253 1845.69C592.534 1836.44 552.823 1826.71 517.803 1818.14ZM636.258 1862.98C618.388 1859.31 600.689 1856.1 583.21 1851.95C565.595 1847.78 548.2 1842.67 530.709 1837.98C530.626 1838.29 530.544 1838.6 530.462 1838.92C538.541 1845.84 622.087 1864.89 636.258 1862.98ZM648.927 1593.01C650.021 1594.48 651.114 1595.95 652.619 1597.97C652.386 1595.3 652.23 1593.53 652.095 1591.98C651.023 1592.34 649.925 1592.7 648.826 1593.06C650.829 1590.27 650.693 1588.41 646.784 1586.38C647.525 1588.73 648.203 1590.88 648.927 1593.01ZM265.92 1767.26C265.063 1766.94 264.207 1766.61 263.353 1766.28C262.536 1765.96 261.74 1765.57 260.896 1765.35C260.22 1765.16 258.961 1764.94 258.867 1765.15C257.953 1767.15 257.245 1768.33 254.78 1766.45C253.701 1765.63 251.53 1766.03 249.891 1766.2C247.688 1766.44 247.749 1765.58 248.333 1763.96C248.514 1763.46 248.044 1762.72 247.871 1762.09C247.524 1762.38 247.214 1762.85 246.823 1762.93C245.113 1763.27 243.211 1764.09 241.683 1763.66C235.919 1762.03 230.364 1759.61 224.56 1758.19C215.851 1756.05 206.911 1754.84 198.226 1752.62C180.85 1748.17 162.584 1747.29 145.984 1739.79C139.249 1736.75 132.26 1733.96 126.173 1729.88C120.296 1725.95 115.291 1720.65 110.162 1715.69C101.895 1707.7 94.0358 1699.31 88.424 1689.16C80.9556 1675.65 74.5728 1661.76 73.2356 1646.1C72.6968 1639.78 71.5398 1633.49 71.3026 1627.17C71.1371 1622.77 71.1975 1618.02 72.6944 1614C75.2509 1607.13 75.5412 1600.06 76.2718 1593.01C78.6703 1569.87 87.47 1549.34 101.167 1530.71C109.377 1519.54 118.418 1509.11 128.467 1499.55C141.928 1486.73 157.07 1476.35 174.123 1468.85C183.062 1464.92 192.096 1461.28 202.007 1460.1C212.721 1458.83 223.308 1456.36 234.043 1455.43C251.689 1453.9 269.457 1453.35 286.82 1457.91C299.42 1461.22 311.79 1465.39 324.31 1469.02C331.521 1471.11 338.841 1472.81 346.078 1474.81C361.321 1479.01 377.017 1478.56 392.533 1478.87C425.586 1479.54 458.421 1482.04 491.015 1487.67C510.714 1491.07 530.568 1493.73 550.092 1497.94C576.437 1503.61 600.931 1513.84 621.194 1532.24C631.906 1541.96 640.155 1553.68 647.391 1566.15C653.935 1577.43 661.264 1588.28 667.35 1599.79C671.938 1608.47 678.253 1615.71 684.233 1623.25C688.424 1628.54 693.201 1633.39 697.883 1638.27C709.852 1650.76 724.897 1659.15 739.03 1668.77C749.742 1676.07 760.053 1683.95 770.485 1691.65C771.092 1692.1 771.166 1693.25 771.524 1694.06C771.617 1694.27 771.811 1694.54 772.007 1694.59C775.018 1695.38 776.76 1697.38 778.286 1700.05C779.295 1701.81 781.728 1702.72 782.961 1704.42C788.6 1712.17 794.681 1719.71 799.36 1728.02C803.424 1735.24 806.363 1743.22 808.803 1751.17C811.282 1759.25 813.042 1767.63 814.199 1776C815.373 1784.49 815.701 1793.12 815.905 1801.7C816.308 1818.72 813.406 1835.33 807.457 1851.18C801.385 1867.36 792.337 1882.02 781.227 1895.3C776.836 1900.56 772.072 1905.53 767.212 1910.36C764.648 1912.91 761.45 1914.82 758.653 1917.15C756.724 1918.76 755.086 1920.72 753.148 1922.32C742.11 1931.43 729.451 1937.67 716.185 1942.84C713.811 1943.76 711.53 1944.92 709.186 1945.93C708.471 1946.24 707.706 1946.48 706.938 1946.62C700.108 1947.91 693.263 1949.12 686.447 1950.48C685.415 1950.68 684.534 1951.91 683.538 1951.97C680.339 1952.16 677.081 1951.84 674.291 1953.89C673.252 1951.56 671.674 1953.89 671.599 1953.85C667.983 1951.62 665.532 1955.48 662.417 1955.46C661.189 1955.46 659.847 1955.95 658.76 1955.59C657.564 1955.2 655.194 1957.56 655.157 1954.24C653.965 1954.59 652.779 1954.96 651.58 1955.29C650.167 1955.68 648.744 1956.03 647.148 1955.74C647.79 1955.49 648.432 1955.24 649.073 1955C625.9 1954.41 602.852 1953.32 580.791 1945.05C580.702 1945.48 580.612 1945.9 580.525 1946.33C592.637 1949.22 604.751 1952.11 616.865 1954.99C616.874 1955.04 616.884 1955.08 616.893 1955.13C611.859 1954.32 606.787 1953.7 601.797 1952.68C579.576 1948.1 559.429 1938.58 540.833 1925.92C527.588 1916.9 514.946 1907 501.995 1897.55C495.327 1892.68 488.506 1888.02 481.886 1883.09C478.977 1880.93 476.545 1878.12 473.633 1875.96C469.693 1873.05 465.472 1870.51 461.423 1867.73C458.029 1865.41 454.199 1863.41 451.594 1860.39C450.474 1859.09 449.505 1858.93 448.373 1858.29C447.698 1857.91 447.524 1856.7 447.024 1855.93C446.784 1855.56 446.087 1855.02 445.972 1855.1C443.93 1856.49 442.866 1854.82 441.405 1853.89C434.893 1849.77 428.351 1845.7 421.714 1841.79C413.423 1836.9 405.164 1831.94 396.645 1827.48C387.075 1822.47 377.306 1817.81 367.48 1813.32C357.885 1808.92 348.136 1804.86 338.403 1800.77C330.425 1797.42 322.335 1794.33 314.368 1790.96C311.148 1789.6 308.167 1787.68 304.976 1786.24C303.65 1785.64 301.778 1786.03 300.644 1785.26C297.735 1783.28 293.861 1783.34 291.328 1780.38C290.441 1779.34 287.871 1779.91 286.289 1779.23C284.626 1778.52 283.226 1777.19 281.702 1776.14C281.474 1775.99 281.151 1775.77 280.934 1775.82C277.851 1776.61 276.152 1775.3 276.159 1773.06C274.405 1772.71 272.89 1772.49 271.418 1772.1C270.056 1771.74 268.763 1770.94 267.396 1770.81C264.368 1770.52 265.116 1768.97 265.968 1767.26C266.312 1768.09 266.54 1769.57 266.975 1769.64C268.54 1769.87 270.174 1769.64 271.778 1769.52C271.97 1769.5 272.33 1768.97 272.267 1768.83C272.101 1768.47 271.779 1767.98 271.459 1767.93C269.622 1767.64 267.767 1767.47 265.92 1767.26Z" fill="#F5F6FB"/>
<path d="M0 0H1439V1106C910.5 1055 984.564 1002.66 891.684 1051.45C773.156 1113.71 529.978 1030.82 427.73 971.5C231.232 857.5 133.976 1013 0 1013V0Z" fill="white"/>
<path d="M0 0H1439V1106C910.5 1055 984.564 1002.66 891.684 1051.45C773.156 1113.71 529.978 1030.82 427.73 971.5C231.232 857.5 133.976 1013 0 1013V0Z" fill="url(#paint0_linear)"/>
<path fill-rule="evenodd" clip-rule="evenodd" d="M455.52 313.879C454.4 313.443 453.483 313.059 452.666 313.964C452.402 314.255 452.593 314.972 453.007 315.176C454.037 315.686 454.708 314.94 455.52 313.879ZM220.214 194.722C219.997 193.497 218.83 193.606 219.088 192.466C219.157 192.161 216.9 193.399 217.166 193.84C217.825 194.944 219.062 194.059 220.214 194.722ZM271.659 240.478C273.76 240.031 275.679 241.741 278.307 240.56C275.819 239.945 273.76 239.88 271.659 240.478ZM300.833 246.721C302.71 246.975 304.657 247.363 306.933 245.493C304.472 245.185 302.661 245.774 300.833 246.721ZM265.239 242.377C267.89 242.956 270.491 243.818 273.395 242.505C270.574 242.135 267.952 241.462 265.239 242.377ZM327.443 301.217C323.974 300.54 320.648 298.807 316.91 300.131C320.478 300.071 323.864 301.354 327.443 301.217ZM458.024 318.953L457.833 318.325C453.464 319.816 449.095 321.308 444.725 322.799C444.769 322.987 444.811 323.176 444.854 323.364C449.415 322.671 453.689 320.674 458.024 318.953ZM152.098 238.814C153.83 243.367 155.153 243.951 158.161 240.889C155.292 241.948 154.771 237.738 152.098 238.814ZM305.736 297.294C301.254 295.328 296.483 296.297 291.789 296.389C296.309 297.871 301.025 297.433 305.736 297.294ZM161.435 186.05C168.383 183.169 175.387 180.509 182.493 178.26C175.163 179.565 168.142 182.157 161.435 186.05ZM318.326 209.704C312.406 209.637 306.486 210.102 300.57 210.888C306.493 211.842 312.412 212.186 318.326 209.704ZM145.545 219.389C144.812 220.777 144.936 221.751 145.008 222.703C145.39 227.76 147.585 231.891 149.848 235.984C150.898 237.883 151.108 237.95 153.484 237.19C148.758 234.739 147.194 230.97 149.746 228.113C148.913 227.275 147.098 226.116 147.707 225.393C149.297 223.507 147.543 223.257 147.072 222.553C146.494 221.691 145.671 221.047 145.545 219.389ZM490.662 289.969C479.014 298.402 467.127 306.398 455.912 315.61C469.602 310.901 480.896 301.824 490.662 289.969ZM274.469 309.461C277.276 311.18 280.025 311.919 282.731 312.659C304.764 318.682 327.539 320.617 350.075 323.877C348.538 323.107 277.191 309.678 274.469 309.461ZM289.093 197.285C287.38 196.531 285.722 195.628 283.702 196.509C283.087 196.777 282.454 196.22 281.983 195.757C281.126 194.915 279.874 195.005 279.215 195.51C278.103 196.365 277.305 195.817 276.386 195.624C275.767 195.493 275.249 195.072 274.556 195.092C269.597 195.242 264.855 193.778 259.95 193.521C257.94 193.415 256.093 192.212 253.918 193.028C253.22 193.29 252.405 194.389 251.785 193.7C251.174 193.023 252.858 192.406 252.301 191.277C250.316 193.118 248.003 194.081 245.63 193.468C243.652 192.955 240.875 194.127 240.085 190.6C240.557 192.685 240.04 193.452 238.371 193.503C236.419 193.564 234.502 193.214 232.581 193.23C231.051 193.244 229.384 193.912 227.98 193.28C226.027 192.399 223.74 194.722 221.953 192.654C221.702 192.363 220.858 192.751 221.023 193.764C221.224 195.001 222.93 195.925 224.105 195.234C225.673 194.311 227.264 195.816 228.804 194.777C229.336 197.11 230.648 195.605 231.717 195.356C231.961 195.298 232.255 195.108 232.461 195.502C233.152 196.828 234.751 196.796 235.554 198.538C235.858 197.233 235.062 195.869 236.042 195.746C237.308 195.588 236.461 197.521 237.359 198.244C237.927 196.864 238.85 196.615 240.014 197.124C243.612 198.699 247.452 197.693 251.184 197.485C253.359 197.364 255.532 197.532 257.587 197.796C261.233 198.264 264.935 198.085 268.562 198.207C272.852 198.352 277.229 198.281 281.566 198.079C284.044 197.963 286.619 198.715 289.066 197.227C292.161 197.947 293.634 197.365 294.138 195.165C292.5 196.099 290.47 195.516 289.093 197.285ZM458.101 328.435C454.991 330.448 451.6 331.258 448.179 331.785C445.553 332.191 442.888 332.111 440.434 333.743C439.963 334.056 439.212 334.521 438.72 333.703C438.393 333.161 437.9 333.212 437.702 333.67C437.047 335.184 436.281 334.859 435.358 334.222C434.694 333.765 434.223 333.793 434.651 334.903C434.025 335.08 433.404 335.323 432.773 335.42C422.506 337.011 412.228 338.386 401.923 338.602C396.488 338.715 391.165 340.331 385.761 340.973C375.795 342.156 366.087 341.35 356.362 339.756C350.481 338.792 344.708 337.227 338.852 336.434C326.848 334.808 314.976 332.476 302.984 330.851C295.408 329.824 287.922 328.407 280.435 326.961C273.596 325.64 267.199 323.048 260.873 320.06C250.7 315.252 240.357 310.85 230.004 306.482C211.957 298.866 194.854 289.284 179.01 277.184C169.126 269.635 159.951 261.146 151.997 251.117C146.427 244.093 141.703 236.406 139.059 227.264C135.124 213.663 138.624 201.454 149.038 191.767C157.006 184.355 166.292 180.356 175.893 177.264C193.322 171.653 210.686 171.749 228.003 174.846C239.844 176.964 251.523 179.798 263.228 182.519C267.914 183.609 272.733 183.052 277.525 183.032C286.299 182.995 295.076 182.62 303.856 182.147C307.446 181.954 311.048 181.551 314.556 180.307C316.441 179.638 318.479 180.149 320.3 178.703C321.187 177.998 322.088 178.764 322.868 179.556C323.719 180.417 324.874 181.157 325.438 178.999C326.034 176.715 327.405 175.403 329.685 175.464C330.718 175.492 331.555 175.441 332.244 174.455C332.332 174.329 332.516 174.142 332.592 174.17C334.646 174.93 335.878 172.881 337.503 172.195C341.326 170.581 345.081 168.751 348.919 167.206C351.487 166.172 353.932 164.75 356.451 163.595C357.608 163.064 358.986 162.561 360.077 161.755C361.34 160.822 362.685 160.119 363.959 159.248C366.927 157.215 370.295 156.335 373.319 154.385C376.977 152.025 380.195 148.988 383.672 146.362C392.944 139.36 401.95 131.844 411.95 126.241C420.731 121.321 429.887 120.175 439.248 121.587C444.022 122.308 448.858 121.418 453.676 121.118C458.549 120.814 463.286 119.556 467.972 118.079C470.847 117.172 473.187 114.752 475.643 112.736C482.748 106.908 489.489 100.235 497.612 96.4561C504.466 93.2677 511.264 89.7622 518.512 87.7542C526.042 85.6692 533.573 84.3253 541.166 84.8636C553.245 85.7207 564.522 88.9655 574.527 96.5904C579.133 100.101 583.17 104.131 586.638 108.849C591.125 114.953 594.231 122.049 596.504 129.65C600.26 142.216 599.414 155.079 596.789 168.135C595.509 174.512 593.95 180.792 591.372 186.722C590.336 189.106 588.977 191.514 588.102 193.84C585.743 200.113 581.953 205.202 578.237 210.343C574.315 215.771 569.992 220.845 565.716 225.956C562.561 229.728 558.79 232.748 555.911 236.834C554.879 238.298 553.243 239.244 551.869 240.406C550.264 241.762 549.365 243.807 547.839 245.295C542.541 250.461 537.422 255.861 532.14 261.049C522.882 270.139 514.692 280.422 506.116 290.275C502.392 294.555 498.686 298.857 494.964 303.139C492.856 305.563 490.487 307.691 488.214 309.881C486.886 311.161 485.065 312.166 483.569 313.339C481.44 315.011 478.729 315.734 477.16 318.412C476.333 319.824 475.081 320.666 473.513 320.9C471.624 321.181 470.285 323.197 468.349 323.439C464.933 325.104 461.518 326.769 458.101 328.435Z" fill="#F5F6FB"/>
<defs>
<linearGradient id="paint0_linear" x1="283" y1="25" x2="151.5" y2="1212" gradientUnits="userSpaceOnUse">
<stop stop-color="white" stop-opacity="0"/>
<stop offset="1" stop-color="#E9EBFF"/>
</linearGradient>
</defs>
</svg>
