<svg width="494" height="390" viewBox="0 0 494 390" fill="none" xmlns="http://www.w3.org/2000/svg">
<path fill-rule="evenodd" clip-rule="evenodd" d="M336.52 313.879C335.4 313.443 334.483 313.059 333.666 313.964C333.402 314.255 333.593 314.972 334.007 315.176C335.037 315.686 335.708 314.94 336.52 313.879ZM101.214 194.722C100.997 193.497 99.83 193.606 100.088 192.466C100.157 192.161 97.9004 193.399 98.1657 193.84C98.8253 194.944 100.062 194.059 101.214 194.722ZM152.659 240.478C154.76 240.031 156.679 241.741 159.307 240.56C156.819 239.945 154.76 239.88 152.659 240.478ZM181.833 246.721C183.71 246.975 185.657 247.363 187.933 245.493C185.472 245.185 183.661 245.774 181.833 246.721ZM146.239 242.377C148.89 242.956 151.491 243.818 154.395 242.505C151.574 242.135 148.952 241.462 146.239 242.377ZM208.443 301.217C204.974 300.54 201.648 298.807 197.91 300.131C201.478 300.071 204.864 301.354 208.443 301.217ZM339.024 318.953L338.833 318.325C334.464 319.816 330.095 321.308 325.725 322.799C325.769 322.987 325.811 323.176 325.854 323.364C330.415 322.671 334.689 320.674 339.024 318.953ZM33.0981 238.814C34.8296 243.367 36.1534 243.951 39.1606 240.889C36.2917 241.948 35.7709 237.738 33.0981 238.814ZM186.736 297.294C182.254 295.328 177.483 296.297 172.789 296.389C177.309 297.871 182.025 297.433 186.736 297.294ZM42.4349 186.05C49.3834 183.169 56.387 180.509 63.4933 178.26C56.1626 179.565 49.1416 182.157 42.4349 186.05ZM199.326 209.704C193.406 209.637 187.486 210.102 181.57 210.888C187.493 211.842 193.412 212.186 199.326 209.704ZM26.5452 219.389C25.8119 220.777 25.9362 221.751 26.0083 222.703C26.3896 227.76 28.585 231.891 30.8484 235.984C31.8982 237.883 32.1081 237.95 34.4842 237.19C29.7577 234.739 28.194 230.97 30.746 228.113C29.9126 227.275 28.0978 226.116 28.7075 225.393C30.2974 223.507 28.5429 223.257 28.072 222.553C27.4937 221.691 26.6708 221.047 26.5452 219.389ZM371.662 289.969C360.014 298.402 348.127 306.398 336.912 315.61C350.602 310.901 361.896 301.824 371.662 289.969ZM155.469 309.461C158.276 311.18 161.025 311.919 163.731 312.659C185.764 318.682 208.539 320.617 231.075 323.877C229.538 323.107 158.191 309.678 155.469 309.461ZM170.093 197.285C168.38 196.531 166.722 195.628 164.702 196.509C164.087 196.777 163.454 196.22 162.983 195.757C162.126 194.915 160.874 195.005 160.215 195.51C159.103 196.365 158.305 195.817 157.386 195.624C156.767 195.493 156.249 195.072 155.556 195.092C150.597 195.242 145.855 193.778 140.95 193.521C138.94 193.415 137.093 192.212 134.918 193.028C134.22 193.29 133.405 194.389 132.785 193.7C132.174 193.023 133.858 192.406 133.301 191.277C131.316 193.118 129.003 194.081 126.63 193.468C124.652 192.955 121.875 194.127 121.085 190.6C121.557 192.685 121.04 193.452 119.371 193.503C117.419 193.564 115.502 193.214 113.581 193.23C112.051 193.244 110.384 193.912 108.98 193.28C107.027 192.399 104.74 194.722 102.953 192.654C102.702 192.363 101.858 192.751 102.023 193.764C102.224 195.001 103.93 195.925 105.105 195.234C106.673 194.311 108.264 195.816 109.804 194.777C110.336 197.11 111.648 195.605 112.717 195.356C112.961 195.298 113.255 195.108 113.461 195.502C114.152 196.828 115.751 196.796 116.554 198.538C116.858 197.233 116.062 195.869 117.042 195.746C118.308 195.588 117.461 197.521 118.359 198.244C118.927 196.864 119.85 196.615 121.014 197.124C124.612 198.699 128.452 197.693 132.184 197.485C134.359 197.364 136.532 197.532 138.587 197.796C142.233 198.264 145.935 198.085 149.562 198.207C153.852 198.352 158.229 198.281 162.566 198.079C165.044 197.963 167.619 198.715 170.066 197.227C173.161 197.947 174.634 197.365 175.138 195.165C173.5 196.099 171.47 195.516 170.093 197.285ZM339.101 328.435C335.991 330.448 332.6 331.258 329.179 331.785C326.553 332.191 323.888 332.111 321.434 333.743C320.963 334.056 320.212 334.521 319.72 333.703C319.393 333.161 318.9 333.212 318.702 333.67C318.047 335.184 317.281 334.859 316.358 334.222C315.694 333.765 315.223 333.793 315.651 334.903C315.025 335.08 314.404 335.323 313.773 335.42C303.506 337.011 293.228 338.386 282.923 338.602C277.488 338.715 272.165 340.331 266.761 340.973C256.795 342.156 247.087 341.35 237.362 339.756C231.481 338.792 225.708 337.227 219.852 336.434C207.848 334.808 195.976 332.476 183.984 330.851C176.408 329.824 168.922 328.407 161.435 326.961C154.596 325.64 148.199 323.048 141.873 320.06C131.7 315.252 121.357 310.85 111.004 306.482C92.9566 298.866 75.8537 289.284 60.0098 277.184C50.1258 269.635 40.9507 261.146 32.9967 251.117C27.4266 244.093 22.7028 236.406 20.0585 227.264C16.1242 213.663 19.6241 201.454 30.0382 191.767C38.006 184.355 47.2917 180.356 56.8931 177.264C74.3225 171.653 91.686 171.749 109.003 174.846C120.844 176.964 132.523 179.798 144.228 182.519C148.914 183.609 153.733 183.052 158.525 183.032C167.299 182.995 176.076 182.62 184.856 182.147C188.446 181.954 192.048 181.551 195.556 180.307C197.441 179.638 199.479 180.149 201.3 178.703C202.187 177.998 203.088 178.764 203.868 179.556C204.719 180.417 205.874 181.157 206.438 178.999C207.034 176.715 208.405 175.403 210.685 175.464C211.718 175.492 212.555 175.441 213.244 174.455C213.332 174.329 213.516 174.142 213.592 174.17C215.646 174.93 216.878 172.881 218.503 172.195C222.326 170.581 226.081 168.751 229.919 167.206C232.487 166.172 234.932 164.75 237.451 163.595C238.608 163.064 239.986 162.561 241.077 161.755C242.34 160.822 243.685 160.119 244.959 159.248C247.927 157.215 251.295 156.335 254.319 154.385C257.977 152.025 261.195 148.988 264.672 146.362C273.944 139.36 282.95 131.844 292.95 126.241C301.731 121.321 310.887 120.175 320.248 121.587C325.022 122.308 329.858 121.418 334.676 121.118C339.549 120.814 344.286 119.556 348.972 118.079C351.847 117.172 354.187 114.752 356.643 112.736C363.748 106.908 370.489 100.235 378.612 96.4561C385.466 93.2677 392.264 89.7622 399.512 87.7542C407.042 85.6692 414.573 84.3253 422.166 84.8636C434.245 85.7207 445.522 88.9655 455.527 96.5904C460.133 100.101 464.17 104.131 467.638 108.849C472.125 114.953 475.231 122.049 477.504 129.65C481.26 142.216 480.414 155.079 477.789 168.135C476.509 174.512 474.95 180.792 472.372 186.722C471.336 189.106 469.977 191.514 469.102 193.84C466.743 200.113 462.953 205.202 459.237 210.343C455.315 215.771 450.992 220.845 446.716 225.956C443.561 229.728 439.79 232.748 436.911 236.834C435.879 238.298 434.243 239.244 432.869 240.406C431.264 241.762 430.365 243.807 428.839 245.295C423.541 250.461 418.422 255.861 413.14 261.049C403.882 270.139 395.692 280.422 387.116 290.275C383.392 294.555 379.686 298.857 375.964 303.139C373.856 305.563 371.487 307.691 369.214 309.881C367.886 311.161 366.065 312.166 364.569 313.339C362.44 315.011 359.729 315.734 358.16 318.412C357.333 319.824 356.081 320.666 354.513 320.9C352.624 321.181 351.285 323.197 349.349 323.439C345.933 325.104 342.518 326.769 339.101 328.435Z" fill="#F5F6FB"/>
</svg>
