<svg width="75" height="214" viewBox="0 0 75 214" fill="none" xmlns="http://www.w3.org/2000/svg">
<path fill-rule="evenodd" clip-rule="evenodd" d="M55.5415 35.9495C55.429 35.974 55.3304 35.9955 55.2021 36.0231C55.1628 36.1652 55.1334 36.3048 55.106 36.4345C55.0524 36.689 55.0068 36.9054 54.91 37.0274C54.4556 37.6004 54.1314 38.2159 53.872 39.0395C53.7732 39.3525 53.6271 39.6429 53.4788 39.9377C53.2885 40.3159 53.0944 40.7015 52.9916 41.1521C52.6345 41.3046 52.5005 41.7201 52.3632 42.1459C52.2473 42.5054 52.129 42.8722 51.8721 43.0944C51.5151 43.4025 51.3759 43.948 51.2351 44.4996C51.1563 44.8087 51.0769 45.1197 50.9584 45.3921C50.8938 45.5403 50.8361 45.695 50.7786 45.8492C50.601 46.3256 50.4254 46.7966 50.0538 47.0537C50.0457 47.6097 49.8176 48.0021 49.5958 48.3835C49.473 48.5947 49.3521 48.8026 49.2716 49.0331C49.0819 49.5769 48.8205 50.054 48.5637 50.5229C48.2669 51.0648 47.9761 51.5956 47.8089 52.2055C47.5705 53.0746 47.2141 53.8117 46.8593 54.5452C46.6876 54.9002 46.5163 55.2544 46.359 55.6223C46.4833 55.7936 46.604 55.96 46.7405 56.1483C46.8653 56.3204 47.0034 56.5109 47.1696 56.7399C46.8052 56.7444 46.6023 56.7468 46.3113 56.7499L46.1343 56.9663C45.9272 57.2197 45.6948 57.5039 45.4748 57.7734C45.5074 57.9035 45.5348 58.0131 45.5595 58.1114C45.5953 58.2544 45.6251 58.3734 45.6559 58.4964C45.4536 58.569 45.2913 58.6269 45.0894 58.6995L44.8275 60.429C44.7152 60.5383 44.6101 60.6407 44.5117 60.7366C44.416 60.8299 44.3266 60.9171 44.2428 60.9985C44.2248 61.1173 44.2049 61.231 44.1857 61.3408C44.1427 61.5865 44.103 61.8131 44.0953 62.0365C44.0896 62.2013 44.1233 62.3614 44.1616 62.5429C44.18 62.6302 44.1994 62.7225 44.216 62.8226L43.8585 62.7684C43.155 64.0074 42.5267 65.3034 42.0837 67.0387C42.1338 67.0978 42.3175 67.3143 42.6249 67.677C42.4043 67.6932 42.2332 67.706 42.0895 67.7167C41.922 67.7292 41.7918 67.7389 41.6639 67.7481C41.5072 68.7629 41.1271 69.6497 40.7671 70.4897C40.3657 71.4263 39.9893 72.3047 39.9751 73.2376C39.8334 73.7291 39.6619 74.0901 39.5062 74.4179C39.3188 74.8124 39.1543 75.1586 39.0922 75.6261C39.0357 76.0538 38.8554 76.4681 38.6627 76.9112C38.5731 77.1171 38.4809 77.3292 38.3971 77.5516C38.3949 77.5469 38.4554 77.6975 38.5134 77.8419C38.4127 77.9666 38.3125 78.0907 38.2053 78.2233C38.2677 78.2862 38.3283 78.3471 38.3894 78.4085C38.4784 78.4978 38.5684 78.5883 38.6668 78.6875C37.9408 79.0963 37.4673 79.8373 37.2541 81.0466C37.1314 81.7441 36.9005 82.3683 36.6696 82.9926C36.566 83.2728 36.4623 83.5531 36.3684 83.84C36.1771 84.4239 35.999 85.0175 35.821 85.6108C35.4701 86.7803 35.1194 87.9487 34.669 89.0391C34.5215 89.3955 34.4464 89.7698 34.3732 90.1352C34.2867 90.5666 34.2027 90.9854 34.005 91.3473C33.5487 92.183 33.3241 93.1324 33.0996 94.0816C32.9675 94.6398 32.8355 95.198 32.6564 95.7329C32.4178 96.4448 32.2173 97.1793 32.0168 97.9138C31.8094 98.6734 31.602 99.433 31.3527 100.167C31.128 100.828 30.9399 101.502 30.7519 102.176C30.659 102.508 30.5662 102.84 30.4691 103.171C30.3556 103.558 30.2724 103.969 30.1896 104.377C30.0547 105.043 29.9209 105.704 29.6589 106.246C29.4745 106.628 29.4192 107.037 29.3673 107.42C29.3163 107.796 29.2685 108.148 29.1048 108.428C28.7878 108.968 28.7092 109.538 28.6305 110.107C28.598 110.343 28.5654 110.578 28.5161 110.811C28.505 110.863 28.5385 110.927 28.5734 110.994C28.59 111.026 28.6069 111.059 28.6195 111.091C28.6653 110.999 28.7108 110.907 28.767 110.794C28.856 110.615 28.9719 110.382 29.1585 110.007C29.1187 110.27 29.096 110.494 29.0772 110.68C29.0443 111.005 29.023 111.216 28.9419 111.322C28.7634 111.556 28.5448 111.718 28.3248 111.882C28.2327 111.95 28.1404 112.019 28.0507 112.093C28.0077 112.683 27.8394 113.247 27.6657 113.83C27.3965 114.733 27.1143 115.679 27.2644 116.833C27.4593 115.898 27.5941 115.251 27.7286 114.603C27.7827 115.602 27.7577 116.643 27.448 117.495C27.254 118.028 27.1211 118.544 26.9844 119.088C26.9136 119.37 26.826 119.645 26.7384 119.921C26.6403 120.23 26.5422 120.538 26.4678 120.855C26.3739 121.255 26.3208 121.67 26.2679 122.083C26.2534 122.197 26.2388 122.31 26.2235 122.423C26.2033 122.572 26.1181 122.678 26.0309 122.786C25.8843 122.969 25.7323 123.157 25.8757 123.569C25.927 123.716 25.8451 123.968 25.7573 124.238C25.6914 124.442 25.6221 124.655 25.6034 124.842C25.5705 125.167 25.4545 125.432 25.3429 125.687C25.2655 125.865 25.1902 126.037 25.1461 126.221C24.9644 126.976 24.7993 127.794 24.8468 128.877C25.0296 128.252 25.1901 127.64 25.347 127.043C25.7481 125.514 26.126 124.075 26.7923 122.717L27.1252 123.828C26.9813 123.996 26.8541 124.144 26.7403 124.277C26.6309 124.404 26.5339 124.517 26.4465 124.619C26.3515 124.885 26.3159 125.151 26.2805 125.415C26.2306 125.788 26.1811 126.158 25.9667 126.52C25.8125 126.781 25.7908 127.199 25.7685 127.627C25.7559 127.869 25.7432 128.115 25.706 128.337C25.6498 128.671 25.5731 129.001 25.4963 129.331C25.4419 129.566 25.3874 129.8 25.3402 130.036C25.3307 130.084 25.3683 130.143 25.4044 130.2C25.4209 130.227 25.4371 130.252 25.4482 130.276C25.549 130.183 25.6526 130.087 25.7421 130.005C25.8054 130.107 25.8577 130.192 25.9074 130.273C25.9284 130.307 25.9489 130.34 25.9695 130.374C26.1405 130.169 26.2747 130.009 26.2463 130.043C26.3078 129.366 26.3483 128.918 26.4158 128.182C26.7295 128.625 26.8966 128.861 27.1195 129.177C27.0669 129.359 27.0234 129.557 26.9797 129.756C26.882 130.2 26.7838 130.646 26.5828 130.923C26.3592 131.231 26.4038 131.511 26.4485 131.792C26.4904 132.055 26.5324 132.319 26.353 132.606C26.1621 132.914 26.076 133.363 25.99 133.813C25.952 134.011 25.9139 134.21 25.8669 134.396C25.7392 134.901 25.6126 135.406 25.4914 135.889L25.4222 136.165L26.1428 136.786C25.943 136.912 25.7907 137.008 25.6675 137.086C25.5313 137.172 25.4308 137.235 25.3417 137.292C25.2789 137.482 25.2222 137.675 25.1663 137.864C25.0414 138.287 24.9204 138.697 24.7442 139.052C24.7289 139.083 24.7135 139.114 24.6983 139.144C24.4131 139.716 24.1598 140.224 24.4293 140.821C24.2182 141.23 24.0178 141.619 23.8153 142.013C23.9551 142.296 24.0766 142.542 24.2579 142.909C24.1601 142.983 24.0645 143.055 23.9713 143.125C23.8259 143.235 23.6866 143.34 23.5546 143.44C23.599 143.572 23.6327 143.673 23.6692 143.782C23.7025 143.882 23.738 143.988 23.786 144.131C23.6618 144.101 23.5638 144.077 23.483 144.057C23.3961 144.035 23.3291 144.018 23.2706 144.004C23.2495 143.703 23.3044 143.407 23.3574 143.121C23.4416 142.668 23.5208 142.24 23.284 141.862C23.4985 141.61 23.7133 141.359 23.8763 141.169C23.9936 140.783 24.0354 140.386 24.0756 140.002C24.1366 139.422 24.1942 138.874 24.5062 138.449C24.4806 138.082 24.4566 137.736 24.4332 137.398C24.4168 137.16 24.4006 136.926 24.3844 136.692C24.5568 136.631 24.7189 136.575 24.9384 136.497C24.8756 136.055 24.8187 135.66 24.7691 135.31L25.1097 134.88C25.0586 134.764 25.0096 134.654 24.961 134.544C24.9153 134.441 24.87 134.339 24.8235 134.234L24.6531 134.577C24.5391 134.807 24.4294 135.028 24.3232 135.241C24.3917 135.39 24.4387 135.492 24.5472 135.729C24.4053 135.855 24.2634 135.981 24.1192 136.109C23.9036 136.301 23.6829 136.496 23.4498 136.704C23.484 136.856 23.5137 136.987 23.5404 137.105C23.5677 137.225 23.592 137.332 23.615 137.435C23.3622 138.059 23.1007 138.704 22.8326 139.365L23.379 139.898C23.1159 140.721 22.856 141.535 22.6114 142.3C22.4338 142.327 22.3103 142.346 22.1739 142.368C22.1979 142.512 22.219 142.639 22.2388 142.758C22.2515 142.834 22.2637 142.907 22.2759 142.98L22.4403 143.42L21.543 143.61C21.6827 144.054 21.747 144.259 21.8114 144.464C21.7237 144.562 21.6359 144.66 21.544 144.762C21.4794 144.834 21.4128 144.908 21.3429 144.986L21.3286 144.949C21.2521 144.751 21.1786 144.561 21.1559 144.503C21.5957 142.534 22.0139 140.658 22.4321 138.783C22.3814 138.734 22.3308 138.684 22.2802 138.635L21.9121 139.127C21.8406 139.444 21.7868 139.759 21.7352 140.062C21.6257 140.704 21.5261 141.288 21.2874 141.704C21.0519 142.113 21.0586 142.519 21.0653 142.923C21.0718 143.316 21.0783 143.707 20.8609 144.097C20.742 144.311 20.696 144.597 20.6479 144.896C20.584 145.293 20.5163 145.714 20.2694 146.02C20.2348 146.948 19.9908 147.815 19.7464 148.685C19.5404 149.418 19.334 150.152 19.2524 150.924C19.1664 151.737 19.0342 152.549 18.902 153.36C18.8428 153.723 18.7837 154.086 18.7286 154.45C18.696 154.386 18.6636 154.323 18.6312 154.259C18.6146 154.227 18.598 154.194 18.5815 154.162L18.2751 155.014C18.6898 153.328 19.2956 149.552 19.2444 147.904C19.1304 148.474 19.0397 149.049 18.949 149.623C18.8674 150.141 18.7857 150.658 18.6871 151.171C18.5951 151.65 18.4747 152.122 18.3544 152.594C18.2092 153.164 18.0641 153.733 17.9692 154.312C17.5079 157.121 17.0587 159.936 16.7035 162.758C16.6373 163.285 16.48 163.745 16.3237 164.202C16.2019 164.558 16.0807 164.913 16.0033 165.296C15.9636 165.493 16.0261 165.661 16.0877 165.827C16.1838 166.085 16.2778 166.338 15.9782 166.687C15.9099 166.766 15.9099 166.986 15.91 167.205C15.9101 167.424 15.9102 167.642 15.8426 167.719C15.5702 168.031 15.6375 168.289 15.7062 168.553C15.7479 168.713 15.7901 168.875 15.7574 169.052C15.5628 170.105 15.4091 171.168 15.2553 172.23C15.0864 173.397 14.9174 174.564 14.6944 175.718C14.4879 176.787 14.4222 177.857 14.3566 178.925C14.2878 180.046 14.219 181.164 13.9877 182.278C13.9467 182.475 13.9188 182.675 13.884 182.924C13.8656 183.056 13.8454 183.201 13.8203 183.367C14.0631 183.257 14.2347 183.18 14.4019 183.105C14.4931 183.065 14.583 183.024 14.6824 182.98C14.5717 183.559 14.4805 184.034 14.4206 184.346L14.4188 184.355C14.1409 184.502 13.9971 184.578 13.8299 184.666C13.886 184.977 13.9348 185.247 13.9838 185.519C14.0202 185.72 14.0566 185.921 14.0961 186.141C14.2433 185.676 14.3551 185.323 14.4668 184.971L14.4682 184.966C14.5298 185.001 14.5924 185.035 14.6537 185.069C14.5692 185.392 14.4845 185.715 14.3974 186.047C14.2867 186.47 14.1719 186.908 14.0482 187.381C14.2559 187.174 14.3661 187.064 14.4761 186.954C14.6771 187.563 14.44 188.036 14.2353 188.445C14.1601 188.595 14.0892 188.736 14.046 188.873C14.2298 189.279 14.3931 189.64 14.5525 189.992L14.779 190.493C14.7866 190.485 14.8003 190.471 14.8185 190.453C14.8664 190.406 14.9454 190.327 15.0245 190.247C15.0439 190.288 15.0633 190.328 15.0827 190.369C15.4063 191.049 15.7322 191.735 16.4408 191.612C16.5411 191.375 16.6324 191.159 16.791 190.784C16.967 191.341 17.1195 191.825 17.2718 192.309C17.5088 192.045 17.654 191.884 17.8293 191.689L17.8921 191.619L18.1988 189.595C18.427 189.412 18.6162 189.26 18.9199 189.016C18.9304 189.666 18.9398 190.261 18.9494 190.868C18.9564 191.308 18.9634 191.755 18.9711 192.235L20.0366 191.24L19.9951 191.135C19.9408 190.999 19.8971 190.889 19.8733 190.828C20.0543 190.384 20.2255 189.964 20.3597 189.635L20.4653 189.376C20.4572 188.74 20.4296 188.117 20.4024 187.504C20.343 186.163 20.2857 184.871 20.4393 183.596C20.5547 182.637 20.6295 181.676 20.7043 180.716C20.8306 179.094 20.9569 177.473 21.2786 175.855C21.6074 174.2 21.8371 172.518 22.0665 170.838C22.124 170.416 22.1816 169.995 22.2406 169.574C22.2938 169.194 22.291 168.807 22.2885 168.459C22.2874 168.31 22.2864 168.168 22.2899 168.037C22.3349 167.887 22.3737 167.741 22.4112 167.598C22.4921 167.292 22.5671 167.008 22.6864 166.768C22.8249 166.49 22.7874 166.241 22.7491 165.988C22.7128 165.749 22.6759 165.504 22.787 165.225C22.9795 164.741 23.0655 164.165 23.1489 163.607C23.1617 163.521 23.1744 163.436 23.1875 163.352C23.5103 161.272 23.8244 159.191 24.1384 157.11C24.2493 156.376 24.3601 155.641 24.4714 154.907C24.4901 154.783 24.5002 154.647 24.5104 154.51C24.5324 154.213 24.5545 153.915 24.6653 153.752C25.0987 153.114 25.1607 152.379 25.2225 151.647C25.2526 151.29 25.2827 150.933 25.356 150.589C25.3697 150.524 25.3594 150.462 25.3478 150.392C25.3265 150.265 25.3009 150.112 25.4146 149.869C25.7336 149.189 26.0587 148.325 26.0648 147.591C26.0685 147.138 26.172 146.727 26.2736 146.324C26.3706 145.939 26.4658 145.561 26.4707 145.161C26.4733 144.956 26.4475 144.756 26.4234 144.569C26.4129 144.487 26.4028 144.409 26.3955 144.333C26.4651 144.191 26.5511 144.047 26.6376 143.902C26.8274 143.584 27.0198 143.261 27.0487 142.937C27.1434 141.878 27.3992 140.871 27.6545 139.867C27.8415 139.131 28.0282 138.396 28.1515 137.642C28.1687 137.537 28.184 137.432 28.1993 137.327C28.2727 136.825 28.3451 136.329 28.6204 135.822C28.8794 135.346 29.0819 134.47 28.7296 133.851C29.3043 133.053 29.7577 132.214 29.4409 131.07C29.5376 130.963 29.6328 130.857 29.73 130.748C29.8271 130.64 29.9262 130.53 30.0309 130.414C30.06 130.222 30.0763 130.009 30.0928 129.793C30.1299 129.309 30.1678 128.815 30.3528 128.532C30.6121 128.136 30.6667 127.692 30.7183 127.272C30.7591 126.939 30.7981 126.622 30.9351 126.356C31.2436 125.757 31.3443 125.141 31.4476 124.51C31.4656 124.399 31.4836 124.289 31.5029 124.178C31.5174 124.094 31.5259 123.998 31.5344 123.903C31.5523 123.702 31.57 123.503 31.6425 123.422C31.9454 123.087 32.0123 122.611 32.0788 122.139C32.147 121.654 32.2147 121.173 32.5358 120.85C32.5395 120.024 32.775 119.274 33.011 118.522C33.1545 118.065 33.2981 117.607 33.3902 117.131C33.4646 116.747 33.5754 116.371 33.6868 115.994C33.8599 115.408 34.0342 114.818 34.074 114.184C34.4159 113.892 34.4648 113.452 34.5137 113.011C34.536 112.81 34.5582 112.61 34.608 112.423C34.7667 111.826 34.9403 111.235 35.114 110.643L35.1668 110.464C35.2244 110.267 35.2908 110.072 35.357 109.877C35.4891 109.488 35.6211 109.099 35.684 108.699C35.8368 107.732 36.1093 106.81 36.3817 105.89C36.6789 104.885 36.9758 103.882 37.1163 102.821C37.5087 102.399 37.5913 101.821 37.6766 101.225C37.7444 100.75 37.814 100.264 38.0428 99.8345C38.2919 99.3676 38.4002 98.7552 38.5096 98.1365C38.6059 97.5924 38.703 97.0434 38.8974 96.5839C39.0595 96.2005 39.1395 95.808 39.2176 95.4247C39.288 95.0797 39.3567 94.7423 39.4825 94.4258C40.1127 92.8372 40.5906 91.1684 41.0686 89.4999C41.3506 88.5153 41.6325 87.5309 41.9457 86.563C42.3789 85.2257 42.7936 83.8722 43.1892 82.5107C43.5939 81.1175 44.0216 79.6975 44.5368 78.3585C44.7261 77.8668 44.8583 77.3481 44.9898 76.832C45.1485 76.2094 45.3062 75.5905 45.5621 75.027C45.8306 74.4358 46.024 73.8079 46.2173 73.1798C46.3097 72.8799 46.402 72.5799 46.5026 72.2839L46.5872 72.0348C47.1212 70.4614 47.656 68.8855 48.2513 67.3546C48.4538 66.8343 48.623 66.2897 48.7923 65.7451C49.1278 64.6661 49.4633 63.5867 50.057 62.6948C50.1089 62.6161 50.1141 62.4478 50.1181 62.3199L50.1185 62.3085C50.1394 61.7086 50.3455 61.2049 50.5511 60.7022C50.6661 60.4211 50.781 60.1402 50.8634 59.843C51.0446 59.1884 51.3313 58.6299 51.6195 58.0683C51.9099 57.5027 52.2019 56.9339 52.3891 56.2608C52.642 55.3521 53.0183 54.4983 53.394 53.6459C53.5424 53.3091 53.6907 52.9725 53.8313 52.6329C53.9577 52.3279 54.0838 52.0227 54.2099 51.7176C54.7601 50.386 55.3103 49.0546 55.8827 47.7421C56.1917 47.0336 56.5112 46.3307 56.8304 45.6287C57.2376 44.7329 57.6443 43.8384 58.028 42.9348C59.0655 40.4915 60.118 38.0734 61.2803 35.7493C62.5219 33.2662 63.7678 30.7868 65.0474 28.3441C65.4945 27.4901 65.9601 26.6556 66.4256 25.8211C67.0182 24.759 67.6108 23.697 68.165 22.595C68.4028 22.1219 68.6629 21.671 68.9231 21.2199C69.4567 20.2946 69.9906 19.3689 70.333 18.2516C71.2754 17.0215 71.9065 15.477 72.5353 13.9381C72.7371 13.4442 72.9386 12.9509 73.1501 12.4688C74.3393 9.75634 74.3318 9.62634 74.1971 7.29538C74.1925 7.21554 74.1877 7.13312 74.1829 7.04792C74.0863 7.07186 73.9888 7.09566 73.897 7.1181C73.873 7.12396 73.8493 7.12973 73.8262 7.13538C73.6847 7.90665 73.5529 8.62637 73.4212 9.34607L73.4211 9.3465C73.3309 8.87002 73.3865 8.3917 73.4444 7.89296C73.5011 7.40546 73.56 6.89844 73.4873 6.35455C73.3823 6.45674 73.2894 6.5548 73.2037 6.64521C73.0269 6.8318 72.8809 6.98585 72.7236 7.07668C72.5596 7.1714 72.3828 7.19633 72.2177 7.21962C72.1488 7.22935 72.0819 7.23878 72.0188 7.25289C71.969 7.34343 71.9196 7.42951 71.8714 7.51343C71.77 7.68989 71.6741 7.85681 71.5922 8.03567C71.4567 8.33268 71.2678 8.53446 71.0776 8.73753C70.8728 8.95623 70.6666 9.1764 70.5244 9.5186C70.2174 10.2585 69.7976 10.875 69.3773 11.4922C68.796 12.3457 68.2139 13.2006 67.9279 14.385C67.9168 14.4302 67.8594 14.4564 67.7994 14.4838C67.764 14.4999 67.7278 14.5165 67.6995 14.5376C67.3185 14.8193 67.1066 15.3406 66.8945 15.8628C66.6547 16.4529 66.4144 17.0442 65.929 17.2921C65.9059 17.3039 65.8966 17.3941 65.8866 17.4917C65.8802 17.5536 65.8736 17.6185 65.8629 17.6681C65.8344 17.8015 65.8009 17.9332 65.7717 18.0477C65.7616 18.0877 65.7519 18.1256 65.7432 18.1607C65.6565 18.2114 65.5794 18.2556 65.5109 18.2949C65.0284 18.5717 64.9657 18.6077 64.8908 18.9983C64.8345 19.2951 64.7165 19.4799 64.5989 19.6642C64.5411 19.7548 64.4833 19.8452 64.433 19.9488C64.2232 20.3802 63.9473 20.7241 63.6719 21.0675C63.2652 21.5746 62.8595 22.0804 62.6691 22.8649C62.2161 23.175 61.9691 23.7463 61.7177 24.3278C61.5148 24.7972 61.3089 25.2734 60.9894 25.6242C60.5142 26.1447 60.1471 26.871 59.7814 27.5945C59.564 28.0246 59.3471 28.4537 59.1083 28.8379C58.5654 29.7111 58.1017 30.642 57.6375 31.5738C57.4561 31.9378 57.2747 32.3019 57.0885 32.6628C56.744 33.3303 56.3825 33.9806 56.0239 34.6256C55.8682 34.9058 55.713 35.185 55.5599 35.4642C55.6072 35.6129 55.6491 35.7452 55.7019 35.9146C55.6433 35.9273 55.591 35.9387 55.5415 35.9495Z" fill="#88DAB0"/>
<path fill-rule="evenodd" clip-rule="evenodd" d="M19.4424 209.675C19.3391 209.58 19.1866 209.311 19.08 209.363C17.9588 209.916 17.0212 209.333 16.0669 208.877C15.281 208.502 14.4472 208.177 13.8662 207.326C12.7902 205.748 11.3358 204.654 10.9186 202.202C10.1101 202.011 10.5057 200.234 9.68955 200.052C9.47209 198.69 8.78065 197.781 8.38528 196.589C8.13689 195.84 7.87371 195.109 7.58701 194.396C7.47689 194.122 7.51588 193.699 7.47648 193.223C7.30549 193.051 7.05275 192.794 6.73387 192.473C6.60327 191.95 6.4407 191.3 6.25352 190.553C6.03762 190.501 5.75204 190.433 5.44715 190.361C5.42743 190.127 5.40736 189.892 5.38727 189.657C4.94555 189.206 4.9588 190.026 4.75497 190.24C4.15294 189.668 3.85276 188.765 3.62382 187.722C4.03488 187.141 4.45114 186.551 4.90887 185.905L6.63751 186.167C6.86497 185.925 7.08963 185.686 7.32573 185.435C8.11828 185.721 9.01535 185.458 9.74877 186.183C10.1008 186.532 10.5573 186.688 10.7719 187.282C10.9086 187.662 11.3821 187.596 11.2967 188.32C11.2779 188.479 11.7472 188.664 11.9847 188.855C12.4567 189.234 12.6807 189.971 12.987 190.564C13.7175 191.977 14.4507 193.413 15.0153 194.994C15.5744 196.562 16.2983 197.993 16.6317 199.773C16.7292 200.293 16.9991 200.711 17.1763 201.188C17.3475 201.65 17.5011 202.129 17.7065 202.73C18.0087 202.066 18.3118 201.397 18.6597 200.632C18.5004 200.507 18.3717 200.407 18.237 200.302C18.6008 198.607 19.4843 197.209 19.9747 195.471L20.5509 195.559C21.0277 194.262 21.48 193.031 21.9323 191.801C22.1256 191.292 21.6824 190.726 22.1821 190.107C22.2249 190.393 22.2658 190.667 22.3062 190.941C22.3349 189.983 23.5101 189.336 22.7452 188.196C23.8876 187.1 23.7779 184.774 25.0684 183.902C25.0233 183.791 24.9626 183.641 24.8796 183.438C25.2738 182.492 25.761 181.552 26.0678 180.521C26.3873 179.451 27.1949 179.219 27.5839 177.927C27.6479 176.606 28.1149 175.166 28.9912 174.017C29.3885 173.888 29.7547 173.77 30.1455 173.642C30.2394 173.758 30.351 173.894 30.4627 174.029C30.6501 173.822 30.8372 173.613 31.0486 173.378C31.1433 173.933 31.2357 174.477 31.3294 175.026C31.5275 174.805 31.7145 174.596 31.9493 174.335C32.0297 174.699 32.1069 175.05 32.2081 175.507C31.4549 176.205 31.7306 177.518 31.2422 178.562C30.5556 180.029 30.2094 181.803 29.6555 183.407C29.0089 185.281 28.2913 187.111 27.6124 188.966C26.8902 190.939 26.1636 192.906 25.5211 194.935C24.9949 196.6 24.2118 198.112 23.7293 199.82C23.1674 200.335 23.4507 201.464 22.8891 201.98C22.7651 203.473 21.8872 204.582 21.6609 206.031C21.6158 206.32 21.4394 206.583 21.3596 206.873C21.0021 208.171 20.5882 209.378 19.4424 209.675" fill="#88DAB0"/>
</svg>
