<svg width="193" height="159" viewBox="0 0 193 159" fill="none" xmlns="http://www.w3.org/2000/svg">
<path fill-rule="evenodd" clip-rule="evenodd" d="M102.581 90.9593C102.121 90.7439 101.616 90.6769 101.456 90.4021C100.924 89.487 100.079 88.8932 99.3716 88.1689C98.5042 87.2803 97.3854 86.5978 96.5869 85.7037C95.4898 84.4754 94.3039 83.3125 93.1247 82.208C91.9096 81.0693 90.8792 79.7336 89.532 78.7189C88.9293 78.2649 88.5624 77.4991 88.0723 76.8871C88.0196 76.8218 87.8598 76.8428 87.7193 76.819C87.6397 76.9535 87.5554 77.0972 87.4475 77.2803C88.1852 77.9547 89.0795 78.5021 89.5722 79.3037C90.0149 80.0231 90.9035 80.225 91.1764 80.8433C91.5046 81.5868 92.397 81.6769 92.5796 82.3252C92.794 83.0884 93.6887 83.0231 93.9051 83.67C94.1644 84.445 95.1049 84.4836 95.4446 85.0617C95.9214 85.8737 96.9986 86.1208 97.293 86.8372C97.6921 87.808 99.0078 87.7641 99.1175 88.8612C100.033 89.222 100.48 90.1079 101.178 90.712C101.967 91.3951 102.896 91.9746 103.495 92.7987C104.006 93.5022 104.883 93.8025 105.231 94.4517C105.554 95.0543 106.205 95.185 106.429 95.6697C106.732 96.3231 107.306 96.5772 107.768 97.0052C108.152 97.362 108.524 97.7415 108.881 98.1357C109.536 98.8612 110.116 99.6934 111.052 100.123C111.268 100.222 111.619 100.381 111.625 100.527C111.659 101.442 112.719 101.369 112.989 102.055C113.297 102.836 114.155 103.015 114.731 103.51C114.913 103.667 115.259 103.75 115.302 103.927C115.469 104.592 116.197 104.721 116.449 105.183C116.797 105.819 117.476 105.707 117.891 106.108C118.512 106.707 119.156 107.284 119.801 107.859C120.351 108.349 120.917 108.821 121.544 109.361C121.577 109.357 121.741 109.338 121.833 109.328C122.059 109.751 122.261 110.128 122.412 110.414C123.251 110.524 123.813 110.869 124.139 111.554C124.498 112.309 125.275 112.26 125.906 112.45C126.631 112.669 126.463 113.867 127.587 113.762C128.151 113.71 128.771 114.387 129.434 114.775C128.856 113.559 127.96 112.793 126.91 112.295C125.828 111.784 125.417 110.445 124.161 110.21C123.885 109.399 123.161 109.361 122.449 109.266C122.351 108.863 122.256 108.469 122.147 108.017C121.727 107.924 121.348 107.841 120.951 107.754C120.727 107.145 120.419 106.616 119.611 106.812C119.553 106.492 119.499 106.192 119.436 105.841C118.352 105.02 117.056 104.406 116.216 103.209C115.861 102.703 115.393 102.256 114.908 101.868C113.998 101.142 113.062 100.474 112.202 99.659C111.284 98.7899 110.534 97.6666 109.309 97.1153C109.11 97.0263 109.049 96.6378 108.917 96.3733C108.707 96.3972 108.468 96.5 108.373 96.4238C107.613 95.8145 106.872 95.1809 106.149 94.5287C106.039 94.4293 106.05 94.1934 106.004 94.02C105.839 94.0449 105.665 94.0702 105.401 94.1106C105.159 93.6595 104.901 93.179 104.642 92.6979C104.585 92.7097 104.514 92.7479 104.468 92.7291C103.727 92.4206 103.451 91.5379 102.67 91.2588C102.574 91.2246 102.573 90.9323 102.581 90.9593ZM47.2261 34.6978C47.316 34.4575 47.3755 34.297 47.4685 34.0473C47.2867 34.0558 47.1442 34.0633 46.9841 34.0719C46.5277 33.1438 46.0873 32.1865 45.5928 31.2602C44.929 30.0174 44.1887 28.8362 43.6478 27.5039C43.1887 26.3737 42.3447 25.3293 42.1376 24.1216C41.9402 22.981 40.8177 22.3311 40.8841 21.1382C39.9628 20.3076 40.1253 18.9938 39.552 17.9991C39.3833 17.7067 39.3649 17.3705 39.0391 17.1199C38.7113 16.8662 38.7724 16.7861 38.8889 15.7932C38.7944 15.7067 38.6736 15.5892 38.5441 15.4822C38.4523 15.4057 38.255 15.3285 38.2637 15.2756C38.4757 13.9955 37.0479 13.3796 37.0756 12.1823C37.0778 12.0694 37.1476 11.8963 37.0975 11.8507C35.6663 10.5655 35.6716 8.52499 34.6409 7.03876C34.2555 6.48182 34.4219 5.78368 34.0784 5.23244C33.9318 4.996 33.828 4.73079 33.6893 4.44743C33.7919 4.16837 33.9707 3.85297 34.0111 3.52252C34.0517 3.19059 33.9552 2.84285 33.901 2.34336C34.9503 2.52887 35.5067 3.32659 36.4404 3.42108C35.9074 3.01937 35.3743 2.61766 34.8033 2.18679C34.8548 2.04046 34.9118 1.87905 34.9676 1.71932C37.2882 2.39534 37.359 2.348 38.9547 4.79388C40.0829 6.52481 41.4882 8.11107 42.0543 10.1822C43.1469 11.3617 43.5887 12.9206 44.3472 14.2933C45.3811 16.165 46.2227 18.1444 47.2155 20.0397C48.4646 22.4258 49.768 24.7829 51.0774 27.1358C52.3028 29.3384 53.6833 31.4374 55.0956 33.5262C56.0273 34.9041 56.8849 36.3623 57.8045 37.7639C58.7246 39.1658 59.692 40.5362 60.6487 41.914C61.3507 42.9237 61.9544 44.0389 62.812 44.8947C63.7194 45.8 63.9893 47.0783 64.8795 47.9629C65.4408 48.5212 65.722 49.3479 66.5077 49.6995C66.6164 49.7475 66.766 49.811 66.8001 49.9037C67.3583 51.4488 68.6763 52.4166 69.61 53.6749C70.5803 54.9819 71.6389 56.2232 72.6909 57.4658C73.2727 58.1532 73.9398 58.7567 74.4274 59.5352C75.0028 60.4537 75.9591 61.0303 76.615 61.9048C77.4249 62.984 78.3636 63.9825 79.2946 64.944C80.2044 65.8836 81.0943 66.8441 81.958 67.8218C83.6428 69.7277 85.5843 71.395 87.0919 73.4678C87.4902 74.0164 88.1401 74.2844 88.5622 74.9055C89.1307 75.7433 90.3516 76.1709 90.7946 77.0384C91.2842 77.9957 92.5701 78.0532 92.7505 79.1716C94.3256 80.1797 95.3317 81.8233 96.8639 82.8897C97.3194 83.2059 97.6472 83.7047 98.0399 84.113C98.4738 84.5648 98.9055 85.0184 99.3563 85.4523C99.7654 85.8472 100.486 85.9425 100.518 86.695C101.374 87.1224 101.882 87.9562 102.603 88.5171C103.527 89.2357 104.098 90.356 105.241 90.8058C105.365 91.7977 106.687 91.7797 106.861 92.7602C106.892 92.9313 107.227 93.0421 107.42 93.1834C107.979 93.5921 108.555 93.9272 108.919 94.6067C109.231 95.1884 110.106 95.2399 110.406 96.0469C110.58 96.5116 111.34 96.7456 111.815 97.0691C111.875 97.4043 111.93 97.7038 111.985 98.0129C113.187 98.0046 113.606 98.8411 113.908 99.8132C114.68 99.5864 115.301 100.127 115.537 100.604C115.843 101.217 116.333 101.46 116.794 101.786C118.139 102.739 119.151 104.092 120.625 104.905C121.004 105.114 121.147 105.747 121.392 106.173C121.623 106.226 121.906 106.254 122.156 106.356C122.859 106.642 123.223 107.361 123.983 107.664C124.612 107.916 125.14 108.604 125.513 109.222C125.718 109.562 125.961 109.424 126.095 109.534C126.85 110.157 127.976 110.327 128.362 111.436C128.459 111.714 128.93 111.855 129.229 112.059C131.374 113.521 133.522 114.975 135.659 116.449C136.14 116.781 136.674 117.106 137.007 117.565C137.349 118.037 137.985 117.691 138.272 118.203C138.458 118.534 138.79 118.781 139.101 119.113C139.471 119.273 139.978 119.411 140.395 119.685C142.009 120.746 143.662 121.764 145.173 122.959C147.054 124.447 149.275 125.329 151.294 126.569C152.748 127.463 154.535 127.818 156.303 128.461C156.509 128.753 156.822 129.196 157.159 129.673C157.244 129.662 157.416 129.638 157.624 129.609C157.669 130.128 157.714 130.645 157.767 131.25C156.77 130.893 155.934 130.592 154.953 130.241C154.959 130.696 154.963 130.979 154.967 131.32L156.51 132.371C156.569 132.7 156.612 132.94 156.689 133.364C156.168 133.39 155.648 133.416 155.047 133.446C155.265 133.766 155.39 133.951 155.527 134.153C155.135 135.119 154.247 135.255 153.396 135.439C153.418 135.61 153.438 135.78 153.443 135.823C152.836 135.938 152.251 136.05 151.551 136.184C151.221 135.818 151.088 134.956 150.184 135.016C150.204 135.188 150.225 135.36 150.264 135.684C149.684 135.132 149.179 134.651 148.675 134.17C148.605 134.234 148.533 134.3 148.462 134.364C148.692 134.62 148.922 134.875 149.225 135.213C148.718 135.155 148.306 135.109 147.773 135.049C147.81 134.814 147.84 134.612 147.901 134.221C147.672 134.044 147.32 133.772 146.89 133.439C146.81 133.827 146.751 134.11 146.644 134.628C146.279 134.379 146.034 134.236 145.816 134.059C144.243 132.78 142.234 132.256 140.627 131.006C139.01 129.749 137.219 128.718 135.585 127.48C135.237 127.217 134.629 127.636 134.491 126.931C134.448 126.713 133.735 126.641 133.69 126.421C133.527 125.626 132.874 126.22 132.506 125.927C131.868 125.418 131.516 124.678 130.785 124.221C128.587 122.845 126.458 121.355 124.342 119.853C123.545 119.287 122.888 118.526 122.113 117.924C121.317 117.308 120.455 116.778 119.666 116.152C121.124 116.637 123.977 118.639 125.154 119.711C124.978 119.49 124.801 119.27 124.624 119.05C124.74 119.022 124.856 118.994 124.972 118.965C124.077 118.355 123.213 117.692 122.28 117.147C120.942 116.366 120.162 114.912 118.728 114.264C118.556 113.553 117.708 113.402 117.465 112.897C117.078 112.092 116.071 112.416 115.685 111.576C115.394 110.941 114.583 110.553 113.88 109.95C113.854 109.86 113.778 109.597 113.702 109.333C113.779 109.288 113.856 109.242 113.933 109.196C115.271 110.335 116.609 111.473 118.014 112.669C118.084 112.66 118.32 112.63 118.557 112.6C118.508 112.329 118.465 112.09 118.421 111.851C118.201 111.862 117.98 111.872 117.504 111.896C117.657 111.488 117.8 111.109 117.943 110.73L117.452 110.786C117.269 110.762 117.086 110.738 116.855 110.707C116.928 110.532 116.995 110.374 117.09 110.147C116.595 109.592 116.066 109.001 115.533 108.404C115.214 108.594 114.976 108.736 114.705 108.898C114.314 108.348 113.933 107.812 113.564 107.293C113.358 107.282 113.133 107.27 112.821 107.253C112.784 106.66 112.751 106.12 112.718 105.579C112.44 105.634 112.32 105.658 112.146 105.692C111.978 105.392 111.8 105.077 111.612 104.742C111.864 104.696 112.102 104.652 112.363 104.605C112.401 104.757 112.442 104.919 112.505 105.167C112.84 105.223 113.22 105.284 113.644 105.354C113.563 105.65 113.503 105.868 113.44 106.1C113.957 106.241 114.471 106.381 115.039 106.536C115.299 107.407 116.325 107.53 116.964 108.215C117.019 108.479 117.092 108.827 117.165 109.174C117.957 108.905 118.297 109.712 119.005 109.904C119.106 109.775 119.234 109.609 119.462 109.313C119.135 109.337 118.984 109.347 118.709 109.367C118.714 109.047 118.718 108.697 118.724 108.326C118.285 108.426 117.99 108.494 117.652 108.571C117.448 108.191 117.247 107.816 117.036 107.42C116.302 107.559 116.043 107.019 115.72 106.444C115.448 105.959 114.998 105.578 114.601 105.123C114.623 104.879 114.65 104.576 114.703 103.97C114.224 104.289 114.008 104.433 113.683 104.649C113.29 104.287 112.872 103.901 112.454 103.514C112.033 103.123 111.433 102.806 111.235 102.32C110.971 101.667 110.161 102.209 109.936 101.477C109.786 100.986 109.185 100.642 108.789 100.236C108.366 100.404 108.05 100.531 107.457 100.769C108.047 101.098 108.406 101.296 108.95 101.597C108.94 101.551 108.988 101.769 109.049 102.048C108.905 102.096 108.763 102.142 108.578 102.204C108.589 102.342 108.602 102.501 108.614 102.656C108.525 102.674 108.385 102.749 108.335 102.709C107.92 102.38 107.542 102.002 107.113 101.693C106.652 101.363 105.91 101.201 105.72 100.768C105.431 100.111 104.799 100.039 104.4 99.5452C104.34 99.2568 104.268 98.9043 104.174 98.4475C103.843 98.4585 103.503 98.4697 102.99 98.4866C103.998 100.255 105.518 101.39 107.002 102.929C106.034 102.627 105.439 102.152 104.909 101.677C104.593 101.395 104.463 100.907 104.026 100.656C103.679 100.457 103.392 99.8723 103.109 99.897C102.389 99.9595 102.662 99.2876 102.354 99.088C101.949 98.826 101.523 98.5822 101.164 98.2656C100.74 97.8925 100.4 97.4255 99.9852 97.042C99.6075 96.693 99.251 96.3577 98.9213 95.9417C98.3937 95.2773 97.5115 94.8999 96.6127 94.6339C97.0819 95.015 97.5501 95.3962 98.2265 95.9471C96.42 95.6182 95.8867 94.0378 94.6614 93.402C94.649 92.9449 94.7113 92.4716 94.5952 92.0501C94.5366 91.8377 94.1551 91.7207 93.6053 91.3459C93.9285 91.9234 94.0526 92.1445 94.1784 92.3692C94.0661 92.3842 93.9218 92.4485 93.8675 92.4032C93.2922 91.9303 92.5633 91.6909 92.2047 90.8859C91.9407 90.2923 91.1019 90.18 90.6937 89.4784C90.2219 88.6673 89.2606 88.1641 88.5827 87.4585C87.9164 86.7642 87.21 86.1135 86.5829 85.3722C85.6653 84.2884 84.5543 83.3717 83.63 82.2931C82.7077 81.2174 81.4083 80.5075 80.7495 79.175C80.4179 78.5036 79.6575 78.2444 79.2026 77.5902C78.2398 76.2083 76.9714 75.0463 75.8555 73.7701C75.2595 73.0893 74.7919 72.3063 74.0387 71.7513C73.1377 71.0865 72.8162 70.2577 72.9514 69.2293C72.6952 69.3775 72.4767 69.5048 72.2402 69.642C72.1978 69.466 72.158 69.3015 72.118 69.1362C71.9543 69.1594 71.7835 69.1836 71.7891 69.1825C71.3611 68.6243 71.0789 67.9972 70.5936 67.6869C69.9309 67.2622 69.85 66.5508 69.1246 65.8063C67.6145 65.184 67.1503 63.0247 65.5195 61.9026C65.6645 61.605 65.8133 61.297 66.1045 60.6977C65.5845 60.9547 65.2741 61.1084 65.1892 61.1503C63.9886 60.0279 63.2919 58.8241 62.695 57.5468L62.9822 57.1255C62.6814 57.0856 62.4273 57.1037 62.2221 57.0121C61.9505 56.8907 61.7179 56.6848 61.4249 56.485C61.3965 56.2213 61.3634 55.9209 61.3263 55.5768L60.0088 54.6789C60.0818 54.4067 60.141 54.1879 60.2144 53.9151C60.0003 53.9097 59.7978 53.9049 59.4682 53.8969C59.3583 53.4297 59.2409 52.9287 59.1468 52.5279C59.3399 52.1691 59.4742 51.919 59.7154 51.4696C59.0675 51.7375 58.6484 51.9103 58.2052 52.0937C57.5553 51.1253 57.1053 50.0381 56.2294 49.1738C55.4566 48.4117 55.2107 47.2127 54.4734 46.3195C54.0668 45.8266 54.0276 45.0022 53.29 44.6989C53.3268 43.9811 52.8091 43.5604 52.4633 43.0337C52.0302 42.3757 51.134 41.9904 51.0935 41.1455C51.0518 40.2941 49.9689 40.026 50.169 39.1228C49.5994 38.6308 49.402 37.8522 48.9366 37.3372C48.3998 36.7441 48.0863 36.1406 47.897 35.3912C47.8362 35.1504 47.5111 34.9811 47.2261 34.6978Z" fill="#5A60FF"/>
<path fill-rule="evenodd" clip-rule="evenodd" d="M173.145 136.479C172.994 136.574 172.659 136.672 172.632 136.82C172.356 138.382 171.222 139.341 170.186 140.362C169.333 141.203 168.492 142.119 167.366 142.55C165.28 143.347 163.357 144.77 160.959 144.467C160.251 145.397 158.982 144.319 158.276 145.262C156.954 145.075 155.703 145.622 154.408 145.711C153.594 145.767 152.786 145.847 151.977 145.962C151.667 146.006 151.327 145.817 150.89 145.707C150.626 145.86 150.235 146.085 149.742 146.37C149.204 146.357 148.533 146.34 147.762 146.321C147.572 146.57 147.321 146.898 147.054 147.249C146.838 147.195 146.621 147.141 146.405 147.088C145.718 147.48 146.436 147.737 146.484 148.059C145.584 148.608 144.603 148.677 143.548 148.611C143.323 147.912 143.093 147.204 142.843 146.426L144.232 144.389C144.176 144.029 144.12 143.673 144.062 143.299C144.843 142.42 145.219 141.23 146.338 140.57C146.876 140.254 147.318 139.744 147.976 139.679C148.395 139.637 148.657 139.033 149.224 139.379C149.349 139.455 149.825 138.94 150.149 138.712C150.794 138.258 151.581 138.228 152.3 138.049C154.011 137.622 155.744 137.199 157.489 137.031C159.22 136.866 160.942 136.453 162.704 136.636C163.219 136.689 163.761 136.497 164.292 136.438C164.806 136.381 165.323 136.352 165.98 136.3C165.61 135.707 165.237 135.112 164.81 134.429C164.594 134.583 164.422 134.708 164.24 134.839C163.021 133.827 162.408 132.276 161.237 131.095L161.7 130.415C160.901 129.397 160.142 128.432 159.383 127.466C159.074 127.059 158.287 127.415 158.089 126.595C158.365 126.638 158.629 126.679 158.892 126.72C158.085 126.366 158.316 124.706 156.817 125.266C156.639 123.497 154.556 122.857 154.671 120.981C154.545 120.999 154.375 121.024 154.143 121.059C153.591 120.259 153.107 119.347 152.423 118.627C151.714 117.878 152.057 116.808 151.203 115.899C150.105 115.381 149.175 114.327 148.773 112.868C148.928 112.336 149.072 111.847 149.225 111.324C149.388 111.247 149.581 111.155 149.773 111.063C149.72 110.764 149.665 110.464 149.604 110.126C150.147 110.194 150.679 110.262 151.216 110.33C151.158 110.012 151.104 109.713 151.036 109.338C151.405 109.36 151.76 109.382 152.223 109.41C152.319 110.568 153.638 110.667 154.211 111.614C155.017 112.947 156.315 113.963 157.328 115.178C158.512 116.597 159.61 118.088 160.755 119.54C161.973 121.085 163.184 122.633 164.504 124.099C165.587 125.3 166.367 126.766 167.517 127.928C167.584 128.79 168.75 128.818 168.818 129.68C170.024 130.33 170.391 131.778 171.491 132.538C171.71 132.69 171.818 132.994 172.015 133.189C172.896 134.061 173.66 134.972 173.145 136.479Z" fill="#5A60FF"/>
</svg>
