<svg width="65" height="58" viewBox="0 0 65 58" fill="none" xmlns="http://www.w3.org/2000/svg">
<path fill-rule="evenodd" clip-rule="evenodd" d="M24.6825 49.2493L25.014 49.951C24.8736 50.1727 24.7273 50.404 24.5788 50.6377C24.7192 50.6943 24.82 50.7351 24.9723 50.7967C24.9454 51.1276 24.9173 51.4697 24.89 51.8056C24.6872 51.9416 24.5132 52.0582 24.3315 52.1797C24.5041 52.2988 24.6403 52.3922 24.7678 52.4798C24.4928 52.813 24.2511 53.1064 23.9895 53.4234C23.9538 53.3866 23.8638 53.2951 23.7453 53.1741L23.2779 53.3949C22.8444 52.9563 22.189 52.778 22.0675 52.1067C21.6369 52.2676 21.3261 51.9627 21.1618 51.7535C20.7726 51.2574 20.1027 51.0028 19.8451 50.4847C19.5448 49.88 18.9819 49.5794 18.5754 49.1213C18.0872 48.5718 17.5776 48.0097 17.0286 47.4952C16.4933 46.9934 15.8683 46.4955 15.5572 45.7766C14.363 44.9718 13.6727 43.7073 12.7245 42.6803C11.9862 41.8804 11.1714 41.1068 10.6173 40.1305C10.4244 39.7909 9.89164 39.632 10.2703 39.0041C9.64305 38.9738 9.21789 38.7904 8.9881 38.2573C8.82655 37.8833 8.55432 37.5387 8.2669 37.2416C7.5157 36.4629 6.95951 35.5443 6.3125 34.6914C5.71816 33.9084 5.2325 33.0441 4.63671 32.2832C3.83358 31.2578 3.48266 30.0426 2.87294 28.9438C2.76546 28.7502 2.83495 28.4667 2.76758 28.2416C2.69454 27.9978 2.43889 27.7562 2.4761 27.547C2.52456 27.2752 2.32277 27.1864 2.27814 27.0047C2.21235 26.7364 2.17056 26.4617 2.10798 26.1343C2.25088 25.9355 2.1576 25.5372 2.53995 25.3575C2.63638 25.3124 2.73573 25.0466 2.6889 24.961C2.33452 24.3126 2.82445 23.8922 3.16304 23.3793C4.03419 22.8311 4.88896 22.9639 5.68766 23.6201C5.79292 23.7062 5.89866 23.8001 5.97455 23.9103C6.27212 24.3434 6.49239 24.8515 6.86576 25.2046C7.27597 25.593 7.48083 26.0645 7.71942 26.5366C7.94828 26.9901 8.06973 27.5944 8.44159 27.8522C8.85619 28.1393 8.72752 28.8028 9.31516 28.8715C9.12547 29.3417 9.77414 29.4106 9.75845 29.7974C10.2076 29.9909 10.2451 30.4776 10.502 30.8022C10.7398 31.1031 10.9496 31.4298 11.19 31.7129C11.9839 32.6448 12.6659 33.6465 13.3128 34.6767C13.9612 34.9495 13.8665 35.7936 14.4819 36.1248C15.0102 36.4092 15.2276 37.0217 15.5819 37.4741C15.9845 37.988 16.3688 38.5446 16.7472 39.0896C17.1008 39.5986 17.5137 40.0684 17.8819 40.5736C18.4248 41.3184 19.157 41.9269 19.6213 42.7432C20.2208 42.8961 20.1143 43.6335 20.6437 43.9039C21.0883 44.1304 21.3852 44.6367 21.6608 45.036C22.3334 46.0108 23.3026 46.6954 24.017 47.6143C24.1862 47.8319 24.3586 48.0476 24.5568 48.2985C24.3242 48.4539 24.1503 48.5705 23.8753 48.7544C24.1553 48.9264 24.3795 49.0636 24.6825 49.2493Z" fill="#88DAB0"/>
<path fill-rule="evenodd" clip-rule="evenodd" d="M28.4318 27.1123C28.3503 27.0843 28.2797 27.06 28.2093 27.036C28.3525 26.8107 28.4952 26.5851 28.6724 26.3057C28.459 26.3292 28.3215 26.3446 28.1024 26.3685C28.0011 26.059 27.7463 25.6959 27.8203 25.4085C27.94 24.9423 27.4384 24.9112 27.4066 24.5705C27.3779 24.2615 27.0704 23.9381 27.1333 23.6738C27.2358 23.243 26.9468 22.9939 26.8839 22.6559C26.8218 22.3247 26.8315 21.9788 26.8085 21.613C26.6776 21.4733 26.5227 21.3084 26.3193 21.0912C26.4575 20.9085 26.5957 20.727 26.8371 20.4088C26.4515 20.4663 26.3242 20.4849 26.1176 20.5159C26.2247 19.3479 25.4026 18.3968 25.4422 17.2598C25.5385 17.1862 25.6213 17.122 25.8407 16.9532C25.5597 16.9867 25.4406 17.0014 25.3022 17.0176C25.2554 16.7565 25.2052 16.4768 25.1535 16.1858C25.3049 16.0933 25.4575 16.0003 25.6808 15.864C25.5655 15.8022 25.495 15.7645 25.3884 15.7076C25.393 15.5728 25.3984 15.4174 25.4057 15.1982C25.2163 15.2045 25.0535 15.21 24.8966 15.2153C24.9523 14.9173 25.0085 14.6182 25.0747 14.2648C25.165 14.2096 25.318 14.1164 25.5155 13.9954C25.2894 13.8221 25.0866 13.6663 24.8246 13.4657C25.1786 12.8718 25.0821 12.0449 25.6737 11.4916C25.8207 11.5342 25.9243 11.5644 26.028 11.5949C26.1335 11.3119 26.0377 11.2499 25.5025 11.2552C25.4674 11.1927 25.4266 11.1324 25.4013 11.0662C25.3907 11.039 25.4138 10.9986 25.4399 10.8822C25.6153 10.8753 25.8101 10.8678 26.0259 10.8592C26.164 10.7162 26.3228 10.5519 26.538 10.3287C26.5632 10.6264 26.5791 10.8074 26.598 11.0326C26.8129 10.8574 26.9728 10.7274 27.2433 10.5067C27.2464 10.9323 27.2481 11.1969 27.2505 11.4987C27.1511 11.4755 27.0573 11.4532 26.9429 11.4264C26.9347 11.6398 26.9258 11.8558 26.915 12.12L27.6027 11.7952C27.8275 11.9656 28.018 12.1101 28.2234 12.2656C28.2454 12.8329 28.2673 13.4109 28.2901 14.0011C28.4818 14.179 28.7681 15.0732 28.7707 15.5384C28.865 15.5761 28.9625 15.6149 29.1083 15.6733C29.105 15.9224 29.1016 16.1943 29.0978 16.4803C28.9925 16.4513 28.8935 16.4249 28.7946 16.3979C28.7821 16.4578 28.7338 16.5543 28.7604 16.5825C29.0608 16.9052 29.5269 17.122 29.326 17.7227C29.2888 17.834 29.5508 18.0387 29.6773 18.1978C30.2562 18.927 30.4918 19.736 30.2588 20.6557C30.3748 20.7899 30.5423 20.9185 30.6182 21.0877C30.7078 21.2871 30.672 21.6896 30.7701 21.7139C31.277 21.8386 30.9042 22.2045 31.0065 22.4278C31.1058 22.6459 31.1877 22.852 31.1891 23.1315C31.1909 23.6047 31.3692 24.0811 31.518 24.5416C32.0188 26.0896 32.3761 27.6627 32.5896 29.2843C32.7548 30.5359 32.9903 31.7792 33.0184 33.0442C33.0377 33.896 33.1086 34.7985 32.8586 35.5931C32.6336 36.3105 32.5045 37.0953 32.0302 37.796C31.9163 37.7828 31.7783 37.7671 31.619 37.749C31.5885 37.8152 31.5462 37.908 31.4977 38.0149C31.1593 37.888 30.8157 37.7589 30.4293 37.614C30.3799 37.2651 30.3617 36.885 30.7269 36.4945C30.4515 36.5786 30.2514 36.64 30.0352 36.7059L29.9011 36.4221C30.0108 36.3091 30.1075 36.2103 30.2063 36.1091C30.0856 36.0348 29.9746 35.9666 29.8236 35.8739C29.8529 35.7381 29.8825 35.603 29.911 35.4712C29.695 35.3873 29.465 35.299 29.2288 35.2072C29.4198 34.8212 29.6137 34.5237 29.7144 34.1996C29.8122 33.8849 29.4007 33.5181 29.8695 33.1693C29.9525 33.1793 30.0901 33.196 30.3044 33.2221C30.2171 33.0092 30.137 32.8133 30.0258 32.542C29.936 32.7466 29.8932 32.8432 29.8028 33.0476C29.6973 32.7892 29.5499 32.6032 29.5616 32.4243C29.5893 32.0011 29.5259 31.6106 29.4548 31.1965C29.3878 30.8064 29.2721 30.4567 29.1464 30.0926C29.0347 29.7687 29.0139 29.4135 28.9048 29.0884C28.7891 28.7454 28.57 28.4339 28.4824 28.0856C28.4042 27.7754 28.4438 27.4346 28.4318 27.1123Z" fill="#88DAB0"/>
<path fill-rule="evenodd" clip-rule="evenodd" d="M50.9362 8.86918L51.7946 8.46371C52.3221 8.63006 52.6861 8.93799 52.9058 9.55842C52.8375 9.65815 52.7115 9.84233 52.5625 10.0593C53.2887 10.5213 52.5056 11.1977 52.8928 11.647C52.7393 12.6274 52.2981 13.5126 52.2176 14.4817C52.2058 14.6236 52.1204 14.7609 52.0674 14.8998C51.6963 15.8762 51.4597 16.8815 51.2705 17.9047C51.14 18.6088 50.9051 19.2996 50.6717 19.9827C50.4168 20.7281 50.2124 21.4765 50.1609 22.2608C50.1515 22.4019 50.0619 22.539 50.0116 22.6789C49.8111 23.2347 49.5393 23.7795 49.4337 24.3512C49.3493 24.8115 49.1407 25.2205 49.0084 25.6552C48.7801 26.4064 48.4065 27.1176 48.0863 27.843C47.7641 28.5729 47.4591 29.3121 47.0931 30.0211C46.94 30.3168 46.6485 30.5452 46.4111 30.8146C46.0087 30.6454 45.6694 30.5032 45.1462 30.2839C44.8499 30.0794 45.3258 29.6817 45.2934 29.29C45.156 29.2213 45.0322 29.16 44.9482 29.1179C44.8461 28.6864 44.7501 28.2804 44.6106 27.6904C45.0142 26.1541 45.3894 24.4096 45.9232 22.6934C46.1763 21.8782 46.3608 21.0051 46.4446 20.1265C46.5045 19.4987 46.8049 18.8885 46.9779 18.2635C47.4354 16.6079 47.9173 14.934 48.6396 13.3763C49.3186 11.9132 49.7308 10.3205 50.9362 8.86918Z" fill="#88DAB0"/>
</svg>
