<svg width="66" height="62" viewBox="0 0 66 62" fill="none" xmlns="http://www.w3.org/2000/svg">
<path fill-rule="evenodd" clip-rule="evenodd" d="M36.9947 9.12053L36.5555 8.48072C36.6587 8.2394 36.7662 7.9877 36.8755 7.73336C36.7279 7.6999 36.6219 7.67568 36.4616 7.63914C36.4355 7.30824 36.4086 6.96606 36.3819 6.63009C36.5604 6.46345 36.7136 6.3206 36.8735 6.17159C36.6842 6.08159 36.5348 6.01114 36.3949 5.94496C36.6133 5.57213 36.805 5.24401 37.0127 4.8893C37.0538 4.91989 37.1572 4.9959 37.2935 5.09638L37.7197 4.80384C38.2176 5.16765 38.8931 5.23905 39.1202 5.88237C39.5196 5.65476 39.875 5.90616 40.0706 6.08647C40.534 6.51416 41.236 6.65852 41.5729 7.12891C41.9659 7.67795 42.5696 7.88486 43.044 8.27218C43.6136 8.73674 44.2064 9.21032 44.8305 9.6306C45.439 10.0405 46.1354 10.4322 46.5573 11.0923C47.8646 11.6962 48.7479 12.8343 49.8478 13.6968C50.7043 14.3686 51.6322 15.0023 52.335 15.8776C52.5796 16.1821 53.1309 16.254 52.8573 16.9342C53.4813 16.8641 53.9303 16.9773 54.2422 17.4668C54.4614 17.8103 54.7851 18.1069 55.1163 18.3544C55.9822 19.0032 56.6778 19.8213 57.4527 20.56C58.1643 21.2381 58.7817 22.0138 59.4913 22.6699C60.4478 23.5539 60.9882 24.6976 61.7654 25.685C61.9024 25.859 61.8791 26.1499 61.9815 26.3613C62.0925 26.5904 62.3835 26.7881 62.3801 27.0006C62.3756 27.2766 62.589 27.332 62.6621 27.5043C62.7698 27.7586 62.8549 28.0231 62.969 28.3364C62.8596 28.5555 63.0153 28.9337 62.6665 29.1722C62.5785 29.2321 62.5229 29.5104 62.5827 29.5874C63.0361 30.1709 62.6195 30.6641 62.3671 31.2245C61.5946 31.9047 60.7296 31.91 59.8364 31.3897C59.7188 31.3215 59.5994 31.2457 59.5069 31.1489C59.144 30.7689 58.8455 30.3025 58.4205 30.0135C57.9536 29.6956 57.6761 29.2628 57.3652 28.8348C57.0669 28.4236 56.8506 27.8464 56.4424 27.6513C55.9873 27.4341 56.0084 26.7585 55.4173 26.7845C55.5295 26.29 54.8782 26.3255 54.8319 25.9413C54.3576 25.8219 54.243 25.3474 53.9376 25.068C53.6548 24.8089 53.3956 24.5199 53.113 24.2787C52.1806 23.4855 51.3475 22.6055 50.5444 21.6917C49.8608 21.5259 49.8196 20.6775 49.1592 20.4488C48.5923 20.2524 48.2799 19.6823 47.8579 19.2924C47.3785 18.8493 46.9103 18.3611 46.4497 17.8835C46.0195 17.4374 45.5369 17.0396 45.0927 16.5997C44.438 15.951 43.6181 15.4672 43.0294 14.7355C42.4132 14.6802 42.4007 13.9352 41.8348 13.7528C41.3598 13.6001 40.9859 13.1477 40.6501 12.7976C39.8306 11.9425 38.7645 11.4214 37.9126 10.6283C37.7109 10.4405 37.5062 10.2551 37.2705 10.0391C37.4753 9.84852 37.6285 9.70567 37.8706 9.48019C37.5667 9.3551 37.3235 9.25549 36.9947 9.12053Z" fill="#88DAB0"/>
<path fill-rule="evenodd" clip-rule="evenodd" d="M36.8265 31.5721C36.9114 31.5868 36.985 31.5995 37.0583 31.6119C36.9529 31.8572 36.848 32.1027 36.7177 32.4068C36.9245 32.3495 37.0578 32.3124 37.2703 32.2538C37.4197 32.5432 37.7293 32.8609 37.702 33.1565C37.6583 33.6358 38.1585 33.5865 38.2442 33.9177C38.3218 34.2182 38.6771 34.4883 38.6571 34.7593C38.6247 35.201 38.9497 35.4008 39.0658 35.7243C39.1799 36.0414 39.2255 36.3845 39.3066 36.7419C39.4582 36.8588 39.6374 36.997 39.8728 37.1789C39.7656 37.3813 39.6581 37.5825 39.4706 37.9352C39.842 37.8169 39.9647 37.7783 40.1637 37.7147C40.2445 38.8847 41.2078 39.6924 41.3502 40.8212C41.2669 40.9092 41.1953 40.9858 41.0057 41.1875C41.2778 41.1095 41.3929 41.0761 41.527 41.0379C41.6149 41.2882 41.7091 41.5563 41.8066 41.8353C41.6719 41.9508 41.5361 42.067 41.3374 42.2372C41.4611 42.2798 41.5367 42.3058 41.651 42.3449C41.668 42.4787 41.6875 42.633 41.7153 42.8506C41.9012 42.8141 42.0611 42.7827 42.2151 42.7525C42.2076 43.0555 42.1999 43.3597 42.1909 43.7192C42.1106 43.788 41.9745 43.9045 41.7988 44.0555C42.0497 44.1905 42.2747 44.3119 42.5653 44.4681C42.3107 45.1108 42.538 45.9118 42.0423 46.5524C41.8903 46.5338 41.7832 46.5205 41.676 46.507C41.617 46.8032 41.7214 46.8491 42.249 46.7584C42.2936 46.8146 42.3435 46.8675 42.379 46.9289C42.3938 46.954 42.3775 46.9976 42.3703 47.1167C42.1982 47.1515 42.0072 47.19 41.7955 47.2329C41.6819 47.3961 41.5514 47.5837 41.3746 47.8384C41.3022 47.5485 41.2576 47.3723 41.2031 47.153C41.0188 47.3603 40.8818 47.5142 40.65 47.7752C40.5789 47.3555 40.535 47.0946 40.4845 46.7971C40.5863 46.8041 40.6825 46.8111 40.7997 46.8194C40.7737 46.6074 40.748 46.3928 40.7165 46.1302L40.0895 46.5606C39.8404 46.4282 39.6292 46.316 39.4017 46.1953C39.2895 45.6388 39.1755 45.0717 39.0589 44.4927C38.8412 44.3476 38.4159 43.5106 38.3391 43.0518C38.24 43.0296 38.1375 43.0069 37.9842 42.9724C37.9477 42.726 37.9078 42.457 37.8658 42.1742C37.9744 42.1859 38.0764 42.1962 38.1783 42.2071C38.181 42.146 38.2133 42.0429 38.1826 42.0194C37.8345 41.7488 37.3398 41.6091 37.4423 40.9841C37.4612 40.8682 37.1699 40.708 37.0196 40.5711C36.3318 39.9437 35.9701 39.1826 36.0534 38.2376C35.9174 38.1236 35.7315 38.0234 35.6296 37.8684C35.5094 37.6859 35.4804 37.2829 35.3797 37.2745C34.8594 37.2323 35.169 36.8116 35.0324 36.6075C34.8995 36.4081 34.7859 36.2176 34.7398 35.942C34.6625 35.4751 34.4105 35.0332 34.1901 34.6024C33.4487 33.1542 32.8448 31.6582 32.3753 30.0916C32.0125 28.8824 31.5816 27.6925 31.352 26.4482C31.1969 25.6105 30.9829 24.7308 31.1029 23.9066C31.2105 23.1624 31.2127 22.3671 31.5691 21.5996C31.6837 21.5945 31.8224 21.588 31.9825 21.5804C32.0021 21.5102 32.029 21.4118 32.0598 21.2986C32.4142 21.3699 32.774 21.4424 33.1785 21.5238C33.2829 21.8604 33.3616 22.2326 33.0634 22.6765C33.3219 22.5495 33.5096 22.4569 33.7125 22.3573L33.8901 22.6161C33.7999 22.7452 33.7202 22.8582 33.6388 22.9739C33.7699 23.0279 33.8904 23.0775 34.0542 23.1449C34.0469 23.2837 34.0392 23.4218 34.0322 23.5564C34.2588 23.6047 34.5 23.6553 34.7477 23.7081C34.6208 24.1197 34.4769 24.4443 34.4292 24.7804C34.3829 25.1066 34.8476 25.4031 34.4405 25.8222C34.357 25.8256 34.2185 25.831 34.0027 25.8395C34.1229 26.0358 34.2333 26.2163 34.3864 26.4664C34.4424 26.2501 34.4692 26.1479 34.5258 25.9317C34.6712 26.17 34.8464 26.33 34.8634 26.5085C34.9035 26.9307 35.0285 27.306 35.1647 27.7035C35.2931 28.0779 35.4631 28.4047 35.6454 28.7441C35.8074 29.046 35.8845 29.3933 36.0441 29.6968C36.2131 30.0169 36.4791 30.2896 36.6211 30.6194C36.7479 30.9131 36.7632 31.2559 36.8265 31.5721Z" fill="#88DAB0"/>
<path fill-rule="evenodd" clip-rule="evenodd" d="M17.522 53.173L16.7393 53.7103C16.1921 53.6303 15.7836 53.3844 15.4677 52.807C15.5192 52.6976 15.6142 52.4957 15.7267 52.2577C14.936 51.9175 15.6011 51.1248 15.1472 50.7431C15.1423 49.7508 15.4365 48.8064 15.3613 47.8369C15.3503 47.695 15.4127 47.5458 15.4429 47.4002C15.6534 46.3771 15.7265 45.3469 15.75 44.3067C15.7665 43.5908 15.8881 42.8713 16.0095 42.1598C16.1422 41.3832 16.2245 40.6118 16.1501 39.8293C16.1369 39.6885 16.2035 39.5389 16.2308 39.3928C16.3401 38.8121 16.5214 38.2309 16.5344 37.6497C16.5443 37.1818 16.6849 36.7447 16.7461 36.2945C16.8516 35.5165 17.1069 34.7547 17.3073 33.9876C17.5089 33.2156 17.692 32.4372 17.9401 31.6789C18.044 31.3626 18.2954 31.0906 18.4868 30.7867C18.911 30.8895 19.2686 30.9757 19.8201 31.1087C20.1453 31.2633 19.7389 31.7319 19.8335 32.1134C19.98 32.1593 20.112 32.2 20.2016 32.2281C20.3714 32.6379 20.5309 33.0233 20.7627 33.5835C20.6096 35.1645 20.5176 36.9466 20.2645 38.726C20.1448 39.5711 20.102 40.4624 20.1594 41.3432C20.2006 41.9725 20.0014 42.6228 19.9304 43.2673C19.7429 44.9748 19.5343 46.7041 19.0699 48.3571C18.6331 49.9099 18.4804 51.5479 17.522 53.173Z" fill="#88DAB0"/>
</svg>
