<svg width="95" height="98" viewBox="0 0 95 98" fill="none" xmlns="http://www.w3.org/2000/svg">
<path fill-rule="evenodd" clip-rule="evenodd" d="M11.9901 28.6248C29.5703 24.7411 47.1784 24.0764 64.8349 28.9232C47.1712 23.2069 29.5646 24.0269 11.9901 28.6248ZM4.50376 28.7246C9.09439 26.8215 14.2216 25.6768 19.3882 24.6663C30.8641 22.4208 42.4091 22.1467 54.0232 23.9214C62.1398 25.1614 69.8428 27.4704 76.6186 32.5162C78.7897 34.133 79.5111 36.1203 79.4657 38.5942C79.4408 39.981 77.9089 41.2036 77.0774 40.4418C74.9682 38.5094 72.2731 38.5065 69.8209 37.7777C62.3861 35.5679 54.9025 33.591 47.1509 32.9111C37.7392 32.0849 28.4328 32.7374 19.1753 34.2783C14.8291 35.0017 10.4638 35.6322 6.18219 36.6957C5.61967 36.8357 4.93874 36.2708 4.41952 36.9357C4.3638 37.0068 4.12386 36.94 3.9714 36.9201C3.48459 36.8569 1.01375 33.4793 1.0807 32.9763C1.39424 30.6195 1.88979 29.9699 4.50376 28.7246Z" fill="#88DAB0"/>
<path fill-rule="evenodd" clip-rule="evenodd" d="M57.5408 50.4111L57.6387 49.9885C56.2958 49.6607 54.9529 49.3329 53.61 49.0051C53.5829 49.1238 53.5545 49.2426 53.5269 49.3617C54.865 49.7112 56.2028 50.0615 57.5408 50.4111ZM50.6987 48.6137C45.2557 47.5088 39.7709 46.8167 34.208 47.5764C39.7357 47.343 45.2108 47.9377 50.6987 48.6137ZM64.441 55.3349C63.0015 56.8199 61.7155 56.1635 60.2784 55.5633C58.9206 54.9965 57.352 55.3364 55.8831 54.8872C54.0711 54.3341 52.1257 53.7858 50.3328 53.7041C48.9603 53.6412 47.8096 52.6893 46.3114 53.113C45.1081 53.4532 43.6615 53.3529 42.4838 52.4925C41.9909 52.1331 41.4646 52.4154 40.9392 52.456C39.5913 52.56 38.2064 52.8403 36.9696 51.9369C36.7793 51.7984 36.3934 51.6976 36.2248 51.796C34.6027 52.7486 33.0229 51.6228 31.4206 51.7153C30.6783 51.758 30.158 51.251 29.7828 50.5979C29.4577 50.0329 28.6367 49.2004 28.7671 49.0191C29.4853 48.0272 29.9238 46.8698 31.5036 46.5129C37.0612 45.2555 42.5833 45.6196 48.1317 46.3871C53.7346 47.1627 59.1328 48.7282 64.3917 50.7819C66.4261 51.5768 68.3696 52.5867 70.1033 53.9525C71.3401 54.9264 71.5526 56.3188 71.661 57.7489C71.7026 58.2946 71.4029 58.6644 70.9255 58.8799C70.4794 59.0816 70.1199 58.8776 69.7373 58.6323C68.3731 57.7584 67.1696 56.4785 65.2632 56.9895C64.8695 57.0947 64.2555 56.9285 64.0031 56.4714C63.7602 56.0327 64.6107 56.1052 64.441 55.3349Z" fill="#88DAB0"/>
<path fill-rule="evenodd" clip-rule="evenodd" d="M58.7247 71.3227C59.7004 72.0168 60.017 72.8182 60.8512 72.9603C61.1885 73.0179 61.6943 73.3152 61.8456 72.7564C61.968 72.3039 61.6319 71.9504 61.1956 71.8332C60.5528 71.6612 59.8926 71.5589 58.7247 71.3227ZM53.8816 69.7023C50.6364 68.7018 47.3559 67.915 43.9097 68.4459C47.278 68.5334 50.5694 69.1733 53.8816 69.7023ZM56.1438 73.8596C55.841 75.0789 55.3567 74.8544 54.3566 74.6383C52.8088 74.3032 51.1446 74.1224 49.8147 73.3799C48.1139 72.4301 46.1967 73.0522 44.5484 72.1607C43.1436 71.4007 42.3385 69.6248 42.6803 68.2443C42.977 67.0478 43.8688 67.1514 44.6471 67.0666C48.746 66.6194 52.6425 67.5821 56.446 68.9717C59.1953 69.9769 61.747 71.4179 64.3253 72.7942C65.1617 73.2403 64.9484 73.5923 64.3238 74.0167C64.0466 74.2048 63.5972 74.2599 63.5937 74.8587C64.2179 74.885 64.8205 74.9137 65.4233 74.9352C65.5678 74.9403 65.7767 74.9833 65.8492 74.9072C66.66 74.0568 66.9318 74.0973 67.8736 75.3088C67.3499 75.4685 66.9023 74.9562 66.4088 75.2308C66.1501 75.9064 67.5498 75.3897 67.1549 76.1961C66.8198 76.8786 65.9017 77.1425 65.5825 76.9689C64.3866 76.3175 63.0915 76.8714 61.8925 76.4467C61.527 76.317 60.9604 77.1886 60.5106 76.2964C60.2624 75.8059 59.0963 75.9269 59.5626 74.9159C59.0604 75.3959 58.5477 74.8133 58.2008 74.8732C57.2384 75.0373 56.7792 74.4341 56.1438 73.8596Z" fill="#88DAB0"/>
<path fill-rule="evenodd" clip-rule="evenodd" d="M68.9946 75.8134C69.2627 76.7541 68.9157 77.7869 70.2283 77.5277C70.8039 77.4145 70.7561 78.0237 70.5292 78.4061C70.1776 78.997 69.7895 79.7284 69.0266 79.5906C68.1345 79.4302 67.0277 79.2228 66.4816 78.5985C66.0528 78.1068 66.8194 77.3048 67.5251 77.0282C68.0778 76.8107 68.7746 76.8684 68.9946 75.8134Z" fill="#88DAB0"/>
</svg>
