<svg width="179" height="174" viewBox="0 0 179 174" fill="none" xmlns="http://www.w3.org/2000/svg">
<path fill-rule="evenodd" clip-rule="evenodd" d="M63.3982 143.896C63.3643 143.856 63.3308 143.817 63.2971 143.778L57.1713 147.004C57.1975 147.047 57.2234 147.09 57.2502 147.134L63.3982 143.896ZM94.8731 58.7689C94.0159 62.1283 92.8744 65.418 93.4336 69.1239C93.913 65.6719 94.393 62.2207 94.8731 58.7689ZM97.9923 90.2642C98.2275 90.7108 98.4323 91.178 98.7024 91.6011C103.056 98.4221 109.223 97.5284 113.098 93.6308C114.362 92.3604 115.15 90.7649 115.838 89.1153C116.452 87.6455 117.009 86.0829 117.231 84.4688C117.785 80.4397 117.165 76.3636 115.882 72.3723C114.097 66.8195 111.601 61.642 107.281 57.5899C104.751 55.2188 101.965 53.5064 98.6525 53.112C97.6996 52.9988 97.322 53.3737 97.0897 54.2426C95.3844 60.6194 94.1499 67.118 94.3182 73.9778C94.4548 79.5766 95.3067 85.0691 97.9923 90.2642ZM74.7625 134.153C71.9587 136.708 69.1551 139.263 66.3513 141.818C68.6738 140.054 70.9199 138.175 73.0998 136.215C73.7389 135.641 74.1906 134.835 74.7317 134.138C76.2618 133.375 76.8868 131.782 77.6091 130.281C76.6602 131.571 75.7112 132.862 74.7625 134.153ZM98.3533 50.2358C103.852 50.9586 108.418 53.605 112.128 57.8638C119.221 66.0066 122.539 75.3846 121.309 85.854C120.732 90.7708 118.51 94.8247 114.802 97.6376C111.672 100.012 107.996 100.306 104.089 99.037C100.202 97.7757 96.8732 95.4016 94.5921 91.7324C92.6377 88.5881 91.1476 85.134 90.6259 81.4404C90.2091 78.4855 89.8168 75.5183 89.6553 72.5656C89.558 70.787 89.8688 69.013 90.0918 67.2607C90.6169 63.1432 91.1994 59.0402 91.5895 54.6897C90.9366 55.3565 90.2041 55.9532 89.6464 56.7042C87.8468 59.1285 86.9251 62.0526 86.3403 65.1193C84.932 72.5081 85.4044 80.123 86.0847 87.762C86.6767 94.4061 87.2172 101.05 86.6965 107.621C85.6761 120.491 80.7558 130.942 71.812 138.955C66.3341 143.863 59.8027 146.958 53.3974 150.294C50.9866 151.55 48.6957 153.036 46.3473 154.413C46.2192 154.488 46.0622 154.514 45.7589 154.618C45.8885 154.157 45.9752 153.849 45.9929 153.787C45.4862 153.654 44.9706 153.519 44.4551 153.384C44.5434 152.827 44.487 152.157 44.7545 151.741C45.1508 151.125 45.7161 150.593 46.3166 150.195C47.966 149.1 49.6821 148.112 51.3517 147.048C53.2577 145.833 55.1339 144.569 57.0415 143.356C57.5049 143.061 58.0792 142.944 58.5329 142.637C60.7049 141.171 62.9304 139.774 64.9864 138.146C66.8318 136.684 68.4088 134.857 70.2417 133.375C71.6381 132.247 72.7445 130.875 73.8013 129.427C76.344 125.941 78.6097 122.321 79.9178 117.945C81.7527 111.807 82.4104 105.398 82.4889 98.8764C82.5352 94.99 81.7892 91.0172 81.5276 87.0865C81.2578 83.0275 81.1122 78.9707 80.9727 74.9168C80.9026 72.8741 80.7815 70.7965 81.0153 68.8126C81.3132 66.2805 81.8801 63.8034 82.4596 61.3494C82.8365 59.7578 83.2733 58.1409 83.981 56.7267C85.6223 53.4431 88.2272 51.3373 91.7794 50.6859C92.8631 50.4867 93.4759 50.04 93.8382 48.8996C96.5191 40.4616 100.425 32.7859 105.41 25.8358C108.383 21.6887 111.358 17.5115 114.695 13.717C119.001 8.82292 123.985 4.73349 129.867 1.97932C130.818 1.53393 131.867 1.24052 132.915 1.07303C133.352 1.00341 133.905 1.44774 134.405 1.65795C134.203 2.08487 134.106 2.66484 133.776 2.90477C133.214 3.31408 132.509 3.51879 131.857 3.79178C131.417 3.97639 130.916 4.05529 130.523 4.31069C126.289 7.06864 122.498 10.4099 119.098 14.2118C110.243 24.1171 103.32 35.4528 98.863 48.5817C98.699 49.0648 98.5606 49.5607 98.3533 50.2358Z" fill="#88DAB0"/>
<path fill-rule="evenodd" clip-rule="evenodd" d="M25.8327 161.072C26.1506 160.952 26.6247 161.482 26.8224 160.833C26.8366 160.788 26.9728 160.729 27.016 160.75C27.5494 161.01 27.943 160.599 28.3791 160.455C29.2347 160.17 30.0615 159.801 30.9147 159.508C31.7766 159.211 32.5837 158.791 33.5371 158.704C34.2221 158.642 34.9053 158.289 35.5352 157.963C36.2095 157.613 36.9884 157.741 37.6405 157.411C38.5413 156.954 39.5989 157.068 40.4837 156.58C40.5162 156.561 40.5539 156.539 40.589 156.541C41.7043 156.578 42.7431 156.135 43.8351 156.022C44.2448 155.979 44.7105 156.13 45.0339 155.726C45.0494 155.384 44.7208 155.274 44.5814 155.045C44.1577 154.347 43.5916 153.738 43.2871 152.967C42.7725 152.908 42.9078 152.325 42.5603 152.065C42.2678 151.845 42.0058 151.418 41.8526 151.035C41.6996 150.651 41.235 150.497 41.2135 150.051C40.6458 149.827 40.68 149.172 40.2903 148.772C39.5933 148.056 39.0525 147.18 38.405 146.399C38.0295 145.947 37.616 145.707 37.2369 145.534C36.5723 145.634 36.2208 146.032 35.9252 146.407C35.1154 147.433 34.3024 148.47 33.6273 149.585C32.5714 151.331 31.412 153.004 30.2643 154.685C29.3256 156.061 28.3519 157.413 27.3867 158.771C26.8504 159.526 26.1881 160.195 25.8327 161.072ZM41.7079 144.381C42.0338 144.527 42.3087 144.651 42.5835 144.774C42.5705 144.807 42.5567 144.841 42.5437 144.874C42.5192 144.94 42.4653 145.06 42.4747 145.065C43.3653 145.561 43.3087 146.817 44.2496 147.281C44.2064 147.438 44.0451 147.661 44.2238 147.766C44.5556 147.961 44.7383 148.167 44.5703 148.555C44.5394 148.626 44.5761 148.697 44.6736 148.682C45.2041 148.6 45.2363 148.976 45.3905 149.338C45.5342 149.675 45.8818 149.918 46.1111 150.224C46.7253 151.044 47.0911 152.035 47.8218 152.77C48.0571 153.007 47.6505 153.365 48.0903 153.59C48.2944 153.694 48.6097 153.948 48.6663 154.332C48.7118 154.639 49.0558 154.804 49.217 155.102C49.5104 155.644 50.0381 155.974 50.7115 155.948C50.6808 156.016 50.6502 156.085 50.6198 156.153C50.9164 156.513 51.1742 156.537 51.3746 156.065C51.5121 156.127 51.6495 156.189 51.7883 156.251C51.7501 156.35 51.7118 156.45 51.6753 156.546C51.9838 156.845 52.5607 156.523 52.7545 156.929C52.9153 157.265 53.1246 157.535 53.3602 157.753C53.341 158.15 52.8749 157.978 52.8192 158.276C52.9573 158.379 53.2046 158.371 53.1466 158.726C52.8957 158.856 52.6161 159.104 52.2135 158.893C52.0861 159.354 52.1665 159.783 52.3327 160.233C52.508 160.705 52.5568 161.199 52.0826 161.595C51.7244 161.893 51.9757 162.517 51.4099 162.749C51.3651 162.737 51.2288 162.701 51.0902 162.674C50.5584 162.57 50.1153 162.384 49.7617 161.851C49.2075 161.017 48.3545 160.375 47.8422 159.523C47.4098 158.805 46.8443 158.946 46.2957 158.985C45.9183 159.011 45.5091 159.09 45.1484 159.186C44.0327 159.485 42.851 159.489 41.7773 159.954C40.8976 159.793 40.2128 160.467 39.3623 160.504C38.536 160.539 37.8362 161.148 37.0395 161.249C35.5693 161.434 34.2965 162.138 32.9375 162.609C31.586 163.076 30.2608 163.619 28.9243 164.128C27.5527 164.651 26.1037 165.034 24.8304 165.735C23.5508 166.441 22.182 166.86 20.8925 167.44C20.4493 167.242 20.0372 167.057 19.6812 166.898C19.8103 166.61 19.9408 166.318 20.0801 166.007C19.552 165.872 19.4372 165.482 19.4549 165.196C19.5274 164.018 19.7804 162.92 20.6041 161.957C21.8622 160.487 23.013 158.925 24.1917 157.387C25.0965 156.208 25.952 154.987 26.7758 153.765C27.8368 152.191 28.9742 150.655 29.8705 148.966C30.2222 148.304 30.8335 147.768 31.0376 147.039C31.1398 146.676 31.7795 146.921 31.605 146.362C31.4932 146.004 31.9833 145.872 32.0806 145.564C32.1929 145.21 32.4888 144.959 32.6363 144.647C32.7831 144.337 33.1124 144.197 33.2031 143.86C33.2877 143.543 33.5428 143.315 33.7152 143.046C34.1194 142.418 34.5787 141.835 35.0625 141.274C35.6421 140.602 36.4076 140.358 37.2847 140.478C37.389 140.492 37.5268 140.498 37.5898 140.528C37.9195 140.686 38.291 140.341 38.5236 140.526C39.1012 140.987 39.8345 141.279 40.254 141.896C40.4633 142.205 40.7139 142.43 40.9832 142.647C41.2483 142.859 41.1663 143.25 41.5119 143.452C41.7522 143.593 41.9413 143.962 41.7079 144.381Z" fill="#88DAB0"/>
</svg>
