<svg width="66" height="75" viewBox="0 0 66 75" fill="none" xmlns="http://www.w3.org/2000/svg">
<path fill-rule="evenodd" clip-rule="evenodd" d="M16.1307 67.3441C16.5454 67.0497 16.92 66.6202 17.382 66.4846C19.1255 65.9721 20.6893 65.0883 22.31 64.3089C23.357 63.8057 24.2815 63.1241 25.2702 62.5414C26.2567 61.9607 27.1446 61.2142 28.0734 60.5366C29.2292 59.6937 30.3514 58.7985 31.4615 57.906C32.3303 57.2073 33.3613 56.6314 33.9779 55.6333C35.2012 54.8551 36.0343 53.6157 37.2728 52.8467C37.5301 52.6874 37.6596 52.3232 37.7397 51.9552C36.9852 52.5974 36.2305 53.2384 35.477 53.8813C34.8628 54.4057 34.2039 54.8878 33.6474 55.4677C32.6905 56.4641 31.5198 57.1996 30.5251 58.1555C29.6265 59.0184 28.5667 59.7267 27.5223 60.4201C26.9163 60.8229 26.2759 61.2184 25.7149 61.6491C25.1566 62.0777 24.3761 62.1818 23.9902 62.8344C22.8535 63.0667 22.1433 64.1359 21.0006 64.3559C20.3112 65.09 19.2884 65.1781 18.4851 65.6528C17.6373 66.1536 16.6866 66.3026 15.8333 66.7303C15.6984 66.7983 15.5425 66.793 15.4192 66.6534C15.1677 66.1433 16.1546 66.4141 15.8948 65.8862C15.5467 65.5729 15.3209 66.2826 14.9048 65.98C15.2195 65.5293 15.5696 65.0923 15.8426 64.6115C15.9935 64.3456 16.3647 64.4911 16.4488 64.1912C17.1105 64.1182 17.6131 63.7008 18.1758 63.4086C18.3063 63.3411 18.4665 63.1862 18.5195 63.1934C19.3401 63.3046 19.8861 62.8069 20.4596 62.3647C20.6469 62.2201 20.7865 62.5065 20.9674 62.4131C20.8295 62.0223 21.1079 61.6221 21.324 61.5739C22.3191 61.3533 22.9053 60.5391 23.7045 60.0464C24.7707 59.3889 25.8161 58.6761 26.7075 57.7698C27.0494 57.4226 27.4849 57.1426 27.8882 56.9115C28.8917 56.3381 29.5521 55.3908 30.4726 54.7519C31.3731 54.1278 32.0054 53.2128 32.9497 52.6229C33.3702 52.3608 33.7547 51.9215 34.0882 51.5067C34.3736 51.1523 34.6697 50.8701 35.1346 50.8127C35.12 50.7026 35.1061 50.5938 35.086 50.4373C35.3629 50.2578 35.7077 50.1177 35.8733 49.767C36.097 49.2933 36.5878 49.0621 36.9346 48.7021C37.6578 47.9521 38.385 47.2151 39.0742 46.4284C39.4763 45.9691 39.8197 45.3753 40.3017 45.0778C40.8978 44.7095 41.0193 44.029 41.5179 43.6846C42.1521 43.2458 42.407 42.5024 42.949 42.0437C43.8205 41.3064 44.2467 40.2416 45.0167 39.4658C46.6896 37.7811 47.7743 35.6776 49.2034 33.8227C49.433 33.5248 49.7373 33.2316 49.8218 32.8906C49.8963 32.59 50.165 32.4179 50.1865 32.0752C50.2001 31.8589 50.395 31.5075 50.7654 31.4827C50.6816 31.0862 51.4335 31.1076 51.1991 30.6206C51.1825 30.5858 51.3159 30.4591 51.398 30.4023C51.4545 30.3634 51.5427 30.371 51.6355 30.3545C51.5931 30.1743 51.5512 29.994 51.4951 29.7553C51.7984 29.3209 52.1295 28.8721 52.4309 28.4042C52.5836 28.1682 52.8586 27.9935 52.7832 27.6211C52.7559 27.4873 52.9194 27.2828 53.0435 27.1572C53.2712 26.9272 53.6216 26.8566 53.6076 26.3781C53.5985 26.0641 54.1183 25.8536 54.0073 25.3983C53.9835 25.3008 54.1734 25.1611 54.2406 25.0287C54.4373 24.6422 54.8638 24.3888 54.8633 23.8838C54.8628 23.4409 55.4978 23.2275 55.3207 22.7018C55.3134 22.6805 55.356 22.6375 55.382 22.6112C56.0732 21.9142 56.197 20.8883 56.8159 20.1444C56.9703 19.9587 57.1824 19.7895 57.1648 19.4761C57.1202 18.6847 57.6742 18.096 57.9344 17.4073C58.1271 16.8983 58.4097 16.4732 58.016 15.9215C57.8178 15.6432 57.8486 15.2257 58.2313 15.0827C58.6211 14.9376 58.7443 14.7402 58.6947 14.3438C58.6805 14.2339 58.8508 14.1007 58.9452 13.9656C59.2423 13.9002 59.3729 14.2016 59.6465 14.3062C59.6737 14.6202 59.7031 14.9529 59.7339 15.3089C60.5649 14.9348 60.9034 15.0918 61.2099 15.7287C61.7002 16.747 61.4007 17.7194 61.137 18.6932C60.954 19.3676 60.6643 20.012 60.4602 20.6813C60.2655 21.3183 59.9108 21.887 59.7855 22.5628C59.7133 22.9534 59.4419 23.3494 59.2477 23.7144C58.7403 24.6676 58.471 25.7399 57.8152 26.6112C57.6091 26.8846 57.7586 27.2435 57.4925 27.5154C57.2816 27.7314 56.9737 27.9777 57.1102 28.3856C57.1254 28.4311 57.0529 28.5184 57.0042 28.5708C56.3152 29.3122 56.1808 30.3773 55.5027 31.1278C55.1584 31.5088 55.2281 32.0884 54.8456 32.4857C54.4848 32.8606 54.1378 33.3004 53.9442 33.7759C53.2317 35.5285 51.9346 36.8921 50.9262 38.4456C50.1276 39.6763 49.2597 40.8622 48.4121 42.0602C47.7757 42.9601 46.8555 43.6326 46.3429 44.6331C45.7387 44.9145 45.5599 45.609 45.0906 45.9729C44.6069 46.348 44.3698 46.9134 43.9258 47.2491C43.4504 47.6087 43.2278 48.2292 42.7253 48.4563C42.1827 48.7008 42.217 49.4916 41.5473 49.5277C41.2777 50.0129 40.8149 50.3262 40.4745 50.7342C40.2102 51.0513 39.8912 51.2665 39.5941 51.5112C39.0569 51.9535 38.6947 52.5468 38.1985 53.0106C37.7336 53.4458 37.2645 53.881 36.7946 54.3052C35.8556 55.1529 34.8817 55.9632 33.9428 56.8166C33.355 57.3509 32.7322 57.887 32.0583 58.3131C31.3942 58.7325 30.9479 59.3948 30.2631 59.7679C29.461 60.2046 28.8607 60.9125 28.0618 61.3615C27.2744 61.8039 26.5617 62.3717 25.8118 62.8756C24.2161 63.9484 22.5289 64.8476 20.8438 65.7569C19.8446 66.2959 18.7454 66.6019 17.715 67.0646C17.2151 67.2894 16.7134 67.3726 16.1307 67.3441Z" fill="#5A60FF"/>
<path fill-rule="evenodd" clip-rule="evenodd" d="M32.1575 23.8907C32.0007 24.1369 31.8933 24.2973 31.6296 24.3516C31.2794 24.4233 31.6175 24.8246 31.3959 25.0089C31.2842 25.1016 31.2154 25.3586 31.1336 25.3556C30.6641 25.34 30.7936 25.8527 30.5972 25.951C30.2561 26.1226 30.1651 26.444 29.9476 26.6816C29.6591 26.9979 29.5345 27.4404 29.044 27.601C28.6445 27.7318 28.8518 28.361 28.3811 28.5663C28.1461 28.6685 27.9771 29.0147 27.8656 29.2865C27.721 29.6376 27.2812 29.5665 27.1298 29.9033C27.0086 30.1733 26.7583 30.384 26.6329 30.6526C26.4789 30.984 26.0239 30.925 25.9104 31.2751C25.7962 31.6253 25.3542 31.5754 25.1847 31.8955C25.0197 32.2057 24.8534 32.5705 24.4192 32.6214C24.0338 33.245 23.6213 33.8344 22.8666 34.0688C22.7814 34.0952 22.7196 34.238 22.6724 34.3389C22.4759 34.7564 22.1175 35.0229 21.7178 35.1621C21.4624 35.2515 21.3862 35.4337 21.2431 35.5909C21.1008 35.7477 20.9687 35.8934 20.7797 36.0252C20.0097 36.563 19.2289 37.0909 18.4741 37.6429C17.4292 38.4066 16.3481 39.0961 15.2296 39.7337C15.0678 39.8258 14.8718 39.8243 14.9007 40.1375C15.2371 40.0238 15.575 40.0623 15.8878 39.8068C16.1779 39.5693 16.6805 39.5368 16.883 39.2619C17.1242 38.9338 17.632 39.2585 17.782 38.7217C17.8537 38.4656 18.3882 38.3448 18.7059 38.1518C19.1519 37.8812 19.6803 37.6794 20.0115 37.3049C20.4686 36.7885 21.0514 36.4543 21.574 36.0503C22.1018 35.6424 22.5666 35.1647 23.0874 34.7509C23.6062 34.3387 24.2183 33.9886 24.6128 33.4729C25.0371 32.918 25.5928 32.5048 26.0381 31.9741C26.3496 31.6025 26.6585 31.1377 27.0563 30.8871C27.393 30.6746 27.6305 30.4292 27.7976 30.1241C27.9871 29.7775 28.4256 29.7992 28.607 29.4207C28.8319 28.9518 29.1747 28.5345 29.4986 28.1206C29.7928 27.744 29.9248 27.1426 30.3912 27.0216C31.0008 26.8633 30.5585 25.9594 31.2622 25.9774C31.256 25.4987 31.4439 25.158 31.9283 25.0133C31.9627 25.0024 31.9944 24.8781 31.9787 24.8196C31.8793 24.4547 32.1766 24.2612 32.3473 24.05C33.543 22.5712 34.2972 20.8159 35.3751 19.2649C35.3903 19.2432 35.3644 19.1927 35.3452 19.0849C34.6642 19.6132 34.5132 20.5666 33.766 20.9219C33.7176 21.2554 33.6731 21.5658 33.6357 21.8271C33.3932 22.0043 33.2558 21.6983 33.0731 21.8101C33.0752 21.9526 33.2044 22.1691 33.0458 22.2205C32.5209 22.3905 32.7472 22.8753 32.5869 23.2004C32.4049 23.2289 32.22 23.2584 31.9718 23.2978C32.0414 23.5186 32.1081 23.732 32.1575 23.8907ZM35.7973 12.0003L36.2513 12.3173C36.4182 12.3221 36.3796 12.2204 36.3824 12.1122C36.3915 11.7968 36.7543 11.5 36.3834 11.1557C36.2688 11.0493 36.316 10.8247 36.4457 10.6455C36.6782 10.3233 36.5369 10.0322 36.2446 9.80187L37.0835 8.60032C37.3188 8.5731 37.5262 8.46335 37.7376 8.6599C37.8612 8.77506 38.0031 8.96908 38.215 8.88264C38.7395 8.66837 39.2376 8.98233 39.3643 9.30668C39.5423 9.76289 39.8433 10.1913 39.7568 10.8123C39.6087 11.8724 39.2887 12.8603 38.9007 13.8306C38.543 14.7256 38.0955 15.5872 37.6807 16.4585C37.4127 17.021 37.014 17.5161 36.8151 18.0794C36.602 18.6849 36.164 19.1429 35.9471 19.7047C35.5842 20.6425 35.122 21.4615 34.3225 22.0965C34.195 22.1974 34.1767 22.5261 34.0868 22.7503C33.7373 23.6191 32.7618 25.2022 32.0238 25.8786C31.8033 26.0808 31.9496 26.4422 31.6754 26.5563C31.3918 26.6745 31.0838 26.7293 31.2616 27.1504C30.478 27.5015 30.6733 28.6427 29.7684 28.9555C29.4564 29.063 29.3452 29.584 28.927 29.7648C28.7347 29.8478 28.94 30.3387 28.6038 30.5445C28.4225 30.5821 28.2078 30.6262 27.9881 30.6718C28.0544 30.8626 28.055 31.0398 27.8996 31.1885C27.4576 31.6103 27.0738 32.1057 26.625 32.4981C25.9926 33.0522 25.3748 33.6296 24.7375 34.1799C23.3307 35.3951 21.9473 36.6262 20.4242 37.7057C19.2548 38.5356 18.0677 39.3096 16.8103 40.0013C15.6442 40.6425 14.4816 41.1508 13.1272 41.0452C13.0708 40.9017 13.1885 40.8344 13.2395 40.7412C13.2903 40.6473 13.4015 40.5749 13.3103 40.3784C13.0174 40.4695 12.7052 40.5672 12.3179 40.6878C12.2394 40.1591 11.9124 39.9323 11.5823 39.7407C11.6958 38.8859 12.4182 38.7679 12.9921 38.5392C13.3929 38.379 13.7513 38.2115 14.1065 37.9488C15.3939 36.9972 16.7236 36.1034 18.0375 35.1875C18.2644 35.3596 17.8575 35.4873 18.0358 35.6537C18.0691 35.6466 18.1478 35.654 18.1882 35.6186C18.5065 35.3356 18.3216 34.8363 18.6601 34.5462C19.0895 34.1787 19.497 33.7853 19.9073 33.3959C20.8583 32.4918 21.9871 31.7846 22.7677 30.6854C23.0458 30.293 23.4796 29.9957 23.8267 29.6354C24.0549 29.3982 24.0893 28.9554 24.5222 28.9222C24.9842 27.9753 26.0131 27.4808 26.4526 26.5293C26.6563 26.0885 27.2331 25.9381 27.2625 25.3918C27.7541 25.2223 27.9617 24.7752 28.2341 24.393C28.5398 23.9639 28.8386 23.5294 29.1402 23.0974C29.4205 22.696 29.7185 22.3054 29.9751 21.8895C30.1628 21.5836 30.4446 21.3509 30.5101 20.9395C30.5534 20.6712 31.1588 20.6362 30.9922 20.1556C31.8395 19.8066 31.6786 18.8137 32.2289 18.2432C33.2666 17.1673 33.6448 15.6496 34.5918 14.5003C34.526 14.0295 35.1853 13.9736 35.1614 13.6345C35.127 13.1382 35.4695 12.8974 35.6797 12.5709C35.7904 12.3986 35.7037 12.2335 35.7973 12.0003Z" fill="#5A60FF"/>
<path fill-rule="evenodd" clip-rule="evenodd" d="M35.0253 38.7419C35.9088 37.4765 36.7769 36.1998 37.6851 34.9527C37.9548 34.5823 38.0614 34.0317 38.6461 33.9374C38.7169 33.9257 38.7761 33.7816 38.7494 33.6483C38.689 33.3485 38.8367 33.1652 39.1159 33.0626C39.2117 33.0274 39.3579 32.9663 39.3707 32.8959C39.4815 32.306 39.7206 31.8182 40.3086 31.57C40.2381 30.8389 40.8416 30.4514 41.1856 29.9551C41.8803 28.9529 42.222 27.7436 43.0631 26.8356C43.0789 25.9353 44.0719 25.497 44.1157 24.6102C44.8054 24.4517 44.7732 23.7735 44.8199 23.3449C44.8843 22.7563 45.533 22.5233 45.4714 21.867C45.4426 21.5609 45.8883 21.2098 46.0712 20.8299C45.7798 21.0331 45.4665 21.073 45.156 21.1199C45.1079 21.5728 45.1164 22.0324 44.7831 22.4114C44.598 22.6222 44.3744 22.8484 44.491 23.1865C44.0049 23.1744 44.206 23.6265 44.1715 23.804C44.1262 24.0366 44.0696 24.0693 43.8825 24.118C43.7984 24.1401 43.6921 24.2821 43.6877 24.3745C43.6394 25.3865 42.5115 25.874 42.4763 26.8866C42.1104 27.161 41.8397 27.4807 41.9565 27.9841C41.3723 27.9672 41.6835 28.7261 41.441 28.7225C40.9196 28.7146 41.3596 29.538 40.7923 29.3607C40.5698 29.6584 40.2266 29.9271 40.1467 30.2593C39.8538 31.4768 38.8696 32.2425 38.2854 33.2637C38.1512 33.4979 37.5795 33.4397 37.8179 33.9456C37.2526 33.8914 37.4957 34.3955 37.3429 34.6273C36.937 35.2456 36.3828 35.7347 35.8407 36.2231C35.7195 36.3324 35.5591 36.4225 35.4422 36.5617C35.2387 36.804 35.2956 37.1731 34.919 37.3638C34.6525 37.498 34.4886 37.8761 34.3281 38.1717C33.775 39.1904 32.7126 39.796 32.1882 40.8336C32.1063 40.9957 31.9482 40.9783 31.8107 41.0212C31.7428 41.0425 31.1413 41.9148 31.0618 42.0467C30.9845 42.1756 30.9171 42.3639 30.801 42.4072C29.9935 42.7072 29.6505 43.5478 28.9477 43.9684C28.8001 44.0568 28.7002 44.2396 28.603 44.394C28.3411 44.8103 28.0127 45.1251 27.4999 45.1889C27.5136 45.298 27.5275 45.4062 27.534 45.4577C26.8484 46.2732 25.8951 46.7458 25.2703 47.5805C25.164 47.7226 25.1032 47.9023 24.876 47.9382C24.7499 47.9583 24.6403 48.0783 24.5172 48.157C24.3678 48.031 24.4154 47.8434 24.3718 47.6852C24.4572 47.3927 25.0409 47.5553 24.9162 47.011C24.825 46.6134 25.4816 46.7996 25.5855 46.3846C25.6591 46.0889 25.9185 45.7123 26.1816 45.6213C26.5818 45.4829 26.5801 45.1286 26.8084 44.895C26.395 45.066 26.1257 45.5363 25.4743 45.4173C25.6813 45.1006 26.1145 45.0879 26.0918 44.6523C26.0443 44.5054 25.8722 44.7526 25.7734 44.6517C25.7406 44.2227 26.1482 44.2011 26.3819 44.0082C26.6071 43.8224 26.6361 43.4466 26.9488 43.3467C27.326 43.2261 27.0052 42.7111 27.4474 42.6087C27.5303 42.6311 27.6643 42.6671 27.8334 42.7129C27.8274 42.6072 27.8219 42.513 27.8122 42.346C28.012 42.3471 28.2274 42.3475 28.4498 42.3487C28.359 41.9847 28.3537 41.7658 28.7386 41.6971C28.8052 41.685 28.874 41.3607 29.0649 41.2667C28.802 40.7765 29.6628 41.2199 29.4658 40.7843C29.4398 40.6364 29.4135 40.4881 29.3862 40.3362C29.0604 40.2769 29.1188 40.7648 28.812 40.736C28.7451 40.4296 28.991 40.2497 29.1543 40.0889C29.2531 39.9922 29.5144 39.7352 29.7244 40.1753C29.8273 40.3911 30.2575 40.1656 30.363 39.8735C30.4395 39.6612 30.4262 39.4559 30.7165 39.3701C30.9592 39.2981 31.1815 39.1426 31.1372 38.795C31.0956 38.4689 31.6427 38.6296 31.6458 38.2236C31.6467 38.1 32.0001 37.8203 32.2049 37.7006C32.4822 37.5386 32.5083 37.1461 32.8549 37.0997C32.641 36.7599 33.1552 36.7137 33.1327 36.3727C33.1105 36.044 33.4679 36.3461 33.6964 36.301C33.3921 35.7254 34.0973 35.8702 34.2107 35.5674C34.1978 35.282 33.9482 35.2523 33.7426 35.1416C33.1058 35.7593 32.8463 36.7097 32.1062 37.2119C31.3755 37.7085 31.2781 38.8095 30.2787 38.9892C30.2175 38.7484 30.4162 38.529 30.5647 38.4523C31.2 38.124 31.3843 37.4181 31.8618 36.9867C32.9822 35.9761 33.6965 34.6679 34.554 33.4666C34.7693 33.1648 35.1805 33.2544 35.332 32.908C35.1532 33.4187 34.9994 33.9292 34.3776 34.1114C34.341 34.3606 34.3017 34.6282 34.2627 34.8924C34.6443 34.9674 34.8429 34.5852 35.1506 34.5692C35.1794 33.9427 35.2452 33.3441 35.8705 32.9941C36.114 32.858 35.8871 32.2909 36.4075 32.4117C36.5225 31.4221 37.33 30.8371 37.7996 30.0561C38.264 29.2847 38.8214 28.5695 39.3331 27.8367C39.3346 27.5472 38.9798 27.5728 38.9015 27.266C39.9109 26.0309 40.3468 24.3596 41.6646 23.2544L40.7889 24.5086C41.0161 24.686 41.1789 24.5521 41.3388 24.5581C41.3265 24.4521 41.3139 24.3463 41.3054 24.2717C41.9125 24.0302 41.6688 23.3236 42.2559 22.9495C41.8615 22.9934 41.6672 23.1067 41.5025 22.776C41.6823 22.6662 41.9343 22.6966 42.1394 22.6185C41.9368 22.2336 41.8144 21.8208 42.138 21.4658C42.7977 20.7438 43.0631 19.8015 43.5365 18.9788C43.8187 18.4878 44.0941 17.9718 44.352 17.4577C44.5935 16.9757 44.7355 16.4439 45.1004 16.0248C44.9699 15.3406 45.8636 15.0345 45.7215 14.3458C46.2234 13.9172 46.1352 13.1833 46.5745 12.7125C46.7656 12.5075 46.5419 12.0922 46.8637 11.9329C47.1287 11.8022 46.7619 11.2764 47.2676 11.3349C47.2944 11.0621 47.0131 10.7683 47.3115 10.5174C47.5235 10.4497 47.4387 10.6319 47.5323 10.759C48.0736 10.6928 48.6669 10.8712 49.2389 10.6431C49.3468 10.8149 49.1766 10.9169 49.1693 11.0532C49.2136 11.2675 49.4457 11.2831 49.5791 11.4459C49.546 11.5628 49.5082 11.6965 49.4696 11.8328C49.5359 11.9917 49.6482 11.8448 49.7673 11.8861C49.8821 12.0885 49.9374 12.3139 49.7425 12.5294C49.4802 12.8197 49.4407 13.1953 49.4648 13.5334C49.5078 14.1403 49.362 14.6871 49.0003 15.1342C48.8196 15.3576 49.0383 15.8236 48.5336 15.8323C48.6224 15.9576 48.7032 16.0705 48.8213 16.2363C48.3956 16.6731 48.3154 17.288 48.0912 17.8442C47.7884 18.5962 47.4047 19.3093 47.1809 20.1023C47.0894 20.4244 46.8804 20.7295 46.7804 21.0825C46.6864 21.414 46.4001 21.6526 46.3579 22.0631C46.3244 22.3918 45.8501 22.6725 45.8105 23.0035C45.7624 23.4008 45.7002 23.6317 45.289 23.7113C45.2527 23.7183 45.3156 24.0153 45.2429 24.0863C44.9071 24.4131 45.0161 24.9196 44.7207 25.264C44.4383 25.5932 44.199 25.9525 44.1706 26.4222C44.1472 26.8125 43.4726 26.7881 43.5739 27.2877C43.0815 28.1882 42.6608 29.128 42.011 29.9393C41.817 30.1817 41.5156 30.4042 41.6342 30.8204C41.6708 30.9496 41.4346 30.9862 41.3225 31.065C40.96 31.3201 40.6622 31.68 40.6041 32.1163C40.5708 32.3659 40.4935 32.5786 40.3254 32.6689C40.1595 32.7581 40.0487 32.749 40.0701 33.0049C40.086 33.1969 39.9212 33.3844 39.6714 33.463C39.3737 33.5573 39.1264 33.858 39.1788 34.1092C39.266 34.5283 38.655 34.324 38.761 34.7112C38.8651 35.0895 38.5372 35.3486 38.3184 35.5535C38.1516 35.7098 38.0421 35.9319 37.8514 36.0407C37.4345 36.2796 37.2884 36.7211 37.0298 37.0735C36.7697 37.4279 36.2788 37.513 36.0984 37.966C36.0249 38.1501 35.9927 38.3019 36.0308 38.4826C35.6739 38.4966 35.4361 38.9544 35.0253 38.7419Z" fill="#5A60FF"/>
<path fill-rule="evenodd" clip-rule="evenodd" d="M35.0273 38.7418C34.673 39.0199 34.9668 39.3689 34.9261 39.6472C34.8486 39.9058 34.576 39.8013 34.4705 39.9408C34.0972 40.4314 33.6702 40.8743 33.2678 41.3334C32.6016 42.0929 31.9419 42.8315 31.1893 43.5159C30.6933 43.9673 30.312 44.5437 29.6703 44.8327C29.661 45.393 29.1389 45.6205 28.8422 45.9484C28.4396 46.3942 28.0648 47.0004 27.3296 47.0245C27.4079 47.3601 27.3255 47.5961 26.9732 47.7224C26.5198 47.8847 26.1673 48.1776 25.9277 48.6069C25.8414 48.7609 25.7494 48.9028 25.5316 48.9578C25.003 49.0919 24.7092 49.5178 24.435 49.9785C24.2972 49.9393 24.164 49.9014 24.0305 49.8633C23.5995 49.9488 24.0642 50.5263 23.6964 50.5509C23.3377 50.5748 23.3225 50.996 23.0077 51.0091C22.9803 50.8552 22.954 50.7069 22.9272 50.5543C23.3354 50.5484 23.4117 50.3132 23.326 49.97C23.3747 49.9126 23.4166 49.8135 23.4694 49.8074C24.1308 49.7297 24.4944 49.1642 24.9217 48.7931C25.4502 48.3342 25.9323 47.7943 26.4666 47.3228C26.9661 46.8824 27.5425 46.4801 27.9574 46.0045C28.4335 45.4579 28.987 44.98 29.4531 44.4194C29.8952 43.889 30.3554 43.3399 30.9596 42.9246C31.385 42.6321 31.6953 42.1385 32.0446 41.7403C32.5226 41.1961 33.2259 40.8399 33.5033 40.1258C33.6368 39.7826 34.0868 39.8639 34.2359 39.5063C34.3607 39.2074 34.6174 38.9613 34.8281 38.7023C34.8479 38.6782 34.9576 38.7265 35.0273 38.7418Z" fill="#5A60FF"/>
</svg>
